<svg width="170" height="170" viewBox="0 0 170 170" fill="none" xmlns="http://www.w3.org/2000/svg">
<path d="M170 130.016H0V130.101H170V130.016Z" fill="#EBEBEB"/>
<path d="M58.8949 132.185H51.0137V132.27H58.8949V132.185Z" fill="#EBEBEB"/>
<path d="M155.982 134.008H136.714V134.093H155.982V134.008Z" fill="#EBEBEB"/>
<path d="M33.7927 134.008H14.5249V134.093H33.7927V134.008Z" fill="#EBEBEB"/>
<path d="M80.5801 114.852H14.9295C13.8585 114.85 12.9915 113.982 12.9915 112.911V20.6244C13.0006 19.5602 13.8653 18.7017 14.9295 18.7H80.5801C81.6521 18.7 82.5215 19.569 82.5215 20.6414V112.911C82.5215 113.983 81.6521 114.852 80.5801 114.852ZM14.9295 18.768C13.9054 18.77 13.0765 19.6003 13.0765 20.6244V112.911C13.0765 113.935 13.9054 114.765 14.9295 114.767H80.5801C81.6045 114.765 82.4344 113.935 82.4365 112.911V20.6244C82.4344 19.5999 81.6045 18.77 80.5801 18.768H14.9295Z" fill="#EBEBEB"/>
<path d="M154.125 114.852H88.4714C87.4001 114.85 86.5321 113.982 86.53 112.911V20.6244C86.5412 19.5595 87.4065 18.7017 88.4714 18.7H154.125C155.188 18.7037 156.051 19.5615 156.06 20.6244V112.911C156.06 113.98 155.195 114.848 154.125 114.852ZM88.4714 18.768C87.447 18.77 86.6171 19.5999 86.615 20.6244V112.911C86.6167 113.935 87.447 114.765 88.4714 114.767H154.125C155.15 114.765 155.98 113.935 155.982 112.911V20.6244C155.98 19.5999 155.15 18.77 154.125 18.768H88.4714Z" fill="#EBEBEB"/>
<path d="M51.6056 138.14C51.6056 138.14 58.2795 134.402 58.7245 129.063C59.1696 123.724 53.9193 122.656 51.6056 120.787C49.2919 118.919 49.2032 117.228 49.1141 114.114C49.025 110.999 48.0461 107.707 44.5758 104.592C41.1054 101.478 40.7494 100.321 41.1945 96.1384C41.6395 91.9561 38.792 86.7058 35.2326 87.5959C31.6731 88.4857 31.4062 94.092 32.1182 97.6514C32.8301 101.211 31.9403 105.037 30.2495 107.707C28.5587 110.377 27.8471 115.093 30.2495 118.118C32.652 121.143 34.2537 123.813 33.097 127.017C31.9403 130.22 28.3809 131.466 32.4741 138.14H51.6056Z" fill="#E6E6E6"/>
<path d="M110.415 138.077H121.895C121.895 138.077 122.962 128.645 122.784 120.992C122.606 113.339 122.161 101.237 117.356 101.593C112.551 101.949 107.034 114.318 110.415 138.077Z" fill="#F5F5F5"/>
<path d="M116.507 138.078C116.507 138.078 127.679 113.162 136.666 118.056C145.653 122.95 127.021 138.202 127.021 138.202L116.507 138.078Z" fill="#F0F0F0"/>
<path d="M115.167 138.202C115.167 138.202 115.899 130.096 112.849 121.801C109.8 113.506 106.018 108.557 101.749 110.142C97.4798 111.728 97.846 122.517 103.579 138.077L115.167 138.202Z" fill="#E6E6E6"/>
<path d="M121.895 138.077C121.895 138.077 126.754 130.461 129.438 123.265C132.122 116.068 132.732 110.701 130.292 109.359C127.852 108.017 116.386 120.449 115.166 138.202L121.895 138.077Z" fill="#E6E6E6"/>
<path d="M107.056 138.077C107.056 138.077 100.773 113.768 90.0389 117.419C79.3048 121.069 98.5474 138.202 98.5474 138.202H107.604" fill="#F0F0F0"/>
<path d="M127.088 131.445C127.088 131.445 128.394 123.454 138.613 113.521C148.832 103.588 151.91 96.2258 150.086 86.2183C150.086 86.2183 159.409 99.3059 153.376 115.4C147.344 131.494 137.987 136.883 130.304 139.002C122.62 141.121 127.088 131.445 127.088 131.445Z" fill="#EBEBEB" stroke="#EBEBEB" stroke-miterlimit="10"/>
<path d="M127.218 139.118C129.288 133.718 132.444 130.543 135.982 127.324C137.278 126.145 138.628 124.958 139.995 123.655C140.928 122.767 141.868 121.823 142.805 120.789C142.805 120.789 142.805 120.789 142.808 120.787C143.781 119.715 144.749 118.549 145.704 117.244V117.241C146.658 115.941 147.596 114.503 148.504 112.89C148.504 112.89 148.504 112.89 148.507 112.888C148.681 112.579 148.856 112.264 149.028 111.94C149.252 111.522 149.463 111.107 149.662 110.693C154.919 99.8169 152.105 90.5743 150.586 86.9907C150.15 85.9598 149.82 85.3958 149.82 85.3958" stroke="#E0E0E0" stroke-width="2" stroke-miterlimit="10"/>
<path d="M146.362 104.514C146.362 104.514 149.176 106.788 149.661 110.695" stroke="#E0E0E0" stroke-width="2" stroke-miterlimit="10"/>
<path d="M145.703 117.243V117.241C145.607 114.897 143.535 111.48 142.325 109.673" stroke="#E0E0E0" stroke-width="2" stroke-miterlimit="10"/>
<path d="M136.612 115.559C137.561 117.058 139.535 120.475 139.995 123.654" stroke="#E0E0E0" stroke-width="2" stroke-miterlimit="10"/>
<path d="M135.982 127.323C135.982 127.323 141.87 126.409 146.606 127.961" stroke="#E0E0E0" stroke-width="2" stroke-miterlimit="10"/>
<path d="M151.847 119.105C147.849 118.648 142.946 120.729 142.808 120.786C142.805 120.789 142.805 120.789 142.805 120.789" stroke="#E0E0E0" stroke-width="2" stroke-miterlimit="10"/>
<path d="M154.871 110.06C151.626 110.609 148.615 112.809 148.506 112.887C148.504 112.89 148.504 112.89 148.504 112.89" stroke="#E0E0E0" stroke-width="2" stroke-miterlimit="10"/>
<path d="M85 156.648C121.408 156.648 150.923 154.925 150.923 152.799C150.923 150.674 121.408 148.951 85 148.951C48.5919 148.951 19.0774 150.674 19.0774 152.799C19.0774 154.925 48.5919 156.648 85 156.648Z" fill="#F5F5F5"/>
<path opacity="0.12" d="M79.4292 61.0432C78.5241 60.7953 78.5054 59.6292 78.5054 59.6292L79.3754 59.8043C79.3754 59.8043 79.2918 60.3778 79.4292 61.0432Z" fill="black"/>
<path d="M127.249 29.2563V78.2704C127.249 79.783 126.022 81.0104 124.509 81.0104H50.4389C48.9262 81.0104 47.7012 79.783 47.7012 78.2704V29.2563C47.7012 27.7436 48.9262 26.5162 50.4389 26.5162H124.509C126.021 26.5162 127.249 27.7436 127.249 29.2563Z" fill="#3F8AEF"/>
<path opacity="0.7" d="M127.249 29.2563V78.2704C127.249 79.783 126.022 81.0104 124.509 81.0104H50.4389C48.9262 81.0104 47.7012 79.783 47.7012 78.2704V29.2563C47.7012 27.7436 48.9262 26.5162 50.4389 26.5162H124.509C126.021 26.5162 127.249 27.7436 127.249 29.2563Z" fill="white" stroke="white" stroke-miterlimit="10"/>
<path d="M122.638 30.636C123.046 30.636 123.377 30.3052 123.377 29.8971C123.377 29.4891 123.046 29.1583 122.638 29.1583C122.23 29.1583 121.899 29.4891 121.899 29.8971C121.899 30.3052 122.23 30.636 122.638 30.636Z" fill="#3F8AEF"/>
<path d="M119.11 29.8971C119.11 30.3051 118.779 30.636 118.371 30.636C117.963 30.636 117.633 30.3051 117.633 29.8971C117.633 29.4891 117.963 29.1583 118.371 29.1583C118.779 29.1583 119.11 29.4891 119.11 29.8971Z" fill="#3F8AEF"/>
<path d="M114.844 29.8971C114.844 30.3051 114.513 30.636 114.105 30.636C113.697 30.636 113.366 30.3051 113.366 29.8971C113.366 29.4891 113.697 29.1583 114.105 29.1583C114.513 29.1583 114.844 29.4891 114.844 29.8971Z" fill="#3F8AEF"/>
<path d="M121.421 39.2044V88.2208C121.421 89.7314 120.194 90.9585 118.684 90.9585H44.6111C43.1008 90.9585 41.8755 89.7311 41.8755 88.2208V39.2044C41.8755 37.6937 43.1005 36.4667 44.6111 36.4667H118.683C120.194 36.4663 121.421 37.6937 121.421 39.2044Z" fill="#3F8AEF"/>
<path opacity="0.8" d="M121.421 39.2044V88.2208C121.421 89.7314 120.194 90.9585 118.684 90.9585H44.6111C43.1008 90.9585 41.8755 89.7311 41.8755 88.2208V39.2044C41.8755 37.6937 43.1005 36.4667 44.6111 36.4667H118.683C120.194 36.4663 121.421 37.6937 121.421 39.2044Z" fill="white"/>
<path d="M121.422 42.2181H103.678V87.056H121.422V42.2181Z" fill="#3F8AEF"/>
<path opacity="0.2" d="M121.422 42.2181H103.678V87.056H121.422V42.2181Z" fill="black"/>
<path d="M121.422 55.6855H103.678V56.2554H121.422V55.6855Z" fill="#FAFAFA"/>
<path d="M121.422 69.7584H103.678V70.3283H121.422V69.7584Z" fill="#FAFAFA"/>
<path d="M121.422 83.6223H103.678V84.1922H121.422V83.6223Z" fill="#FAFAFA"/>
<path d="M111.418 59.6074V66.3071L116.477 62.9574L111.418 59.6074Z" fill="#FAFAFA"/>
<path d="M111.418 73.6252V80.3249L116.477 76.9753L111.418 73.6252Z" fill="#FAFAFA"/>
<path d="M111.418 45.3462V52.0459L116.477 48.6959L111.418 45.3462Z" fill="#FAFAFA"/>
<path d="M67.8917 69.7584C67.8917 69.7584 63.3537 76.519 61.9427 77.8644C61.9427 77.8644 54.34 78.5529 51.2113 76.4037L50.4194 78.3475C50.4194 78.3475 57.6387 82.4329 62.5323 81.4316C67.4256 80.4303 71.0425 70.9889 71.0425 70.9889L67.8917 69.7584Z" fill="#B55B52"/>
<path d="M89.9347 65.7342C89.9347 65.7342 94.27 66.9225 96.9727 67.1486C96.9727 67.1486 98.996 62.4141 99.3499 58.1121L100.888 58.1984C100.888 58.1984 102.304 66.5736 98.5948 69.9699C96.0295 72.3186 87.4751 67.9653 87.4751 67.9653L89.9347 65.7342Z" fill="#B55B52"/>
<path d="M77.7328 47.2505C77.7328 47.2505 71.8596 46.6833 71.2514 52.6704C70.6428 58.6575 72.9973 63.5324 72.9973 63.5324C72.9973 63.5324 76.551 70.7635 80.8591 69.7585C85.1672 68.7531 88.8185 66.4203 88.0579 62.5158C87.2973 58.6112 85.8775 58.7629 85.9282 53.3371C85.9785 47.9111 80.8768 44.7657 77.7328 47.2505Z" fill="#263238"/>
<path d="M84.1454 55.8338C83.5314 58.837 82.1601 60.0331 79.3752 59.8039C79.3752 59.8039 79.2916 60.3775 79.4289 61.0429C79.5931 61.8348 80.0674 62.7558 81.3683 62.9795C83.7629 63.3889 82.4457 66.4516 82.4457 66.4516L80.0729 67.6233L76.9401 65.8185L74.5778 63.2784L75.4128 63.2838C75.4128 63.2838 77.0238 60.846 75.3992 56.7439C75.3992 56.7439 74.2276 56.119 74.1576 54.7536C74.0875 53.3878 75.4934 53.3127 76.0242 53.8216C76.0242 53.8216 78.4402 52.7683 78.0795 48.6958C78.0795 48.6958 80.4659 50.4815 83.5178 49.9616C83.5178 49.9616 84.7594 52.8278 84.1454 55.8338Z" fill="#B55B52"/>
<path d="M81.9607 53.3368L81.9906 55.4373C81.9906 55.4373 82.4408 55.6597 83.0392 55.3761L81.9607 53.3368Z" fill="#A02724"/>
<path d="M78.7394 50.9725C78.719 50.9725 78.6983 50.9671 78.6796 50.9558C78.6248 50.9229 78.6072 50.8515 78.6401 50.7967C78.6452 50.7882 79.1563 49.9644 80.1521 50.3156C80.2126 50.337 80.2443 50.4033 80.2232 50.4639C80.2018 50.5244 80.1355 50.5553 80.0753 50.5346C79.2555 50.2452 78.8554 50.8892 78.839 50.9167C78.8169 50.9528 78.7789 50.9725 78.7394 50.9725Z" fill="#263238"/>
<path d="M84.0026 51.6222C83.9741 51.6222 83.9455 51.6117 83.9231 51.5906C83.595 51.2819 82.9901 51.5093 82.984 51.5117C82.9245 51.5352 82.8572 51.5049 82.834 51.4454C82.8109 51.3856 82.8405 51.3186 82.9003 51.2955C82.9306 51.2839 83.6463 51.0126 84.0818 51.4219C84.1284 51.4658 84.1308 51.5392 84.0869 51.5858C84.0642 51.61 84.0336 51.6222 84.0026 51.6222Z" fill="#263238"/>
<path d="M81.0668 56.4457H81.0658C79.629 56.4267 79.0894 55.4431 79.0673 55.4012C79.0448 55.3587 79.0608 55.3064 79.103 55.2836C79.1455 55.2612 79.1982 55.2771 79.2206 55.3193C79.241 55.3574 79.7378 56.2543 81.0678 56.272C81.1158 56.2727 81.1545 56.3121 81.1539 56.36C81.1532 56.4076 81.1144 56.4457 81.0668 56.4457Z" fill="#263238"/>
<path d="M80.4575 52.9751C80.4647 53.2257 80.3327 53.4324 80.1624 53.4375C79.9921 53.4426 79.8482 53.2434 79.8411 52.9931C79.834 52.7429 79.9659 52.5358 80.1362 52.5307C80.3062 52.526 80.45 52.7249 80.4575 52.9751Z" fill="#263238"/>
<path d="M83.4795 53.002C83.4866 53.2522 83.3547 53.4593 83.1844 53.4644C83.014 53.4691 82.8702 53.2702 82.8631 53.02C82.8559 52.7698 82.9878 52.5627 83.1582 52.5576C83.3282 52.5525 83.4724 52.7517 83.4795 53.002Z" fill="#263238"/>
<path d="M80.0859 52.5395L80.8591 52.3206C80.8591 52.3206 80.719 52.7347 80.0859 52.5395Z" fill="#263238"/>
<path d="M83.1577 52.5575L83.7248 52.4756C83.7248 52.4756 83.5103 52.8533 83.1577 52.5575Z" fill="#263238"/>
<path d="M91.4018 65.5989L88.7474 71.4598L87.332 70.9471C87.332 70.9471 87.4748 81.5901 86.3195 87.0563H72.4672L71.6706 72.5342L70.9461 74.0496L65.8301 71.1854C65.8301 71.1854 67.2414 65.4041 69.4433 64.381C70.4942 63.8914 72.7355 63.5201 75.0397 63.2791C77.5686 63.0145 80.1767 62.9078 81.3691 62.9798C81.3691 62.9798 81.585 62.973 81.9699 62.9846C83.4666 63.0325 87.52 63.376 91.4018 65.5989Z" fill="#3F8AEF"/>
<path d="M99.3499 58.1121C99.3499 58.1121 98.5775 57.1244 98.3201 55.611C98.063 54.0977 98.5836 52.7248 98.5836 52.7248L101.331 52.6272L101.673 55.0334C101.673 55.0334 101.957 56.7259 100.888 58.1984L99.3499 58.1121Z" fill="#B55B52"/>
<path d="M51.2114 76.4038L49.7803 73.8528L48.0389 73.2462L46.8013 75.5579L47.9069 77.0736C47.9069 77.0736 49.3649 78.3132 50.4195 78.3476L51.2114 76.4038Z" fill="#B55B52"/>
<path d="M81.9703 62.9839C81.9471 66.6498 79.6549 70.6662 79.6549 70.6662C77.6132 68.6962 75.5898 64.4758 75.04 63.2787C77.569 63.0142 80.1771 62.9074 81.3695 62.9795C81.3695 62.9795 81.585 62.9723 81.9703 62.9839Z" fill="#B55B52"/>
<path opacity="0.12" d="M70.946 74.0492L71.6583 70.1144L71.6706 72.5338L70.946 74.0492Z" fill="black"/>
<path opacity="0.12" d="M88.7473 71.4594L86.4622 69.7584L87.3319 70.9467L88.7473 71.4594Z" fill="black"/>
<path d="M73.6965 134.756L76.9669 138.296L69.3761 145.514L66.6697 143.588L73.6965 134.756Z" fill="#B55B52"/>
<path d="M70.0322 145.344C70.2165 146.444 70.4861 147.671 72.0504 149.828C72.3979 150.306 71.4864 151.204 70.4613 150.257C69.4362 149.31 67.9677 147.82 67.2265 147.135C66.0205 146.018 65.5133 145.645 64.5449 144.776C64.5303 144.764 64.5164 144.751 64.5035 144.737C64.3073 144.532 64.3148 144.206 64.5201 144.01L66.6733 142.265C66.7787 142.176 66.9358 142.187 67.028 142.289L69.7697 144.825C69.9101 144.967 70.0023 145.148 70.0322 145.344Z" fill="#263238"/>
<path d="M69.628 145.28C69.6107 145.253 69.6107 145.218 69.628 145.191C69.647 145.166 69.679 145.155 69.7096 145.163C69.8657 145.213 71.2634 145.645 71.4229 146.075C71.4528 146.155 71.4392 146.245 71.3875 146.312C71.3093 146.429 71.1726 146.493 71.0329 146.479C70.7588 146.422 70.5103 146.279 70.3233 146.071C70.0693 145.828 69.8368 145.563 69.628 145.28ZM69.8905 145.38C70.3553 145.972 70.7772 146.327 71.0363 146.327C71.126 146.333 71.2117 146.289 71.2597 146.213C71.2828 146.188 71.2896 146.152 71.2773 146.121C71.2563 146.074 71.225 146.033 71.1852 146C70.7898 145.725 70.3525 145.516 69.8905 145.38Z" fill="#3F8AEF"/>
<path d="M69.6065 145.248C69.6004 145.223 69.6085 145.196 69.6279 145.177C69.6527 145.153 70.2664 144.588 70.7914 144.631C70.9478 144.645 71.0926 144.718 71.1956 144.837C71.3412 145.003 71.3197 145.121 71.2738 145.191C71.0787 145.493 70.0645 145.454 69.6599 145.308L69.6316 145.291C69.6208 145.278 69.6126 145.264 69.6065 145.248ZM70.788 144.787C70.4337 144.819 70.0998 144.966 69.8374 145.206C70.2841 145.312 71.0256 145.283 71.1426 145.103C71.1497 145.088 71.178 145.042 71.0824 144.936L71.0505 144.901C70.9777 144.835 70.8856 144.795 70.788 144.787Z" fill="#3F8AEF"/>
<path d="M72.2102 141.219L76.6652 141.155L76.0481 152.356L72.8416 152.247L72.2102 141.219Z" fill="#B55B52"/>
<path d="M76.8036 151.53C77.7117 152.247 78.1585 152.995 80.7054 153.552C81.2729 153.676 81.2905 155.006 79.9462 154.996C78.6018 154.985 77.1725 154.868 76.197 154.868C74.615 154.857 74.0156 154.939 72.7633 154.939C72.4519 154.933 72.204 154.676 72.2098 154.364L72.4261 151.527C72.4339 151.401 72.5413 151.304 72.6671 151.311L76.2674 151.335C76.4629 151.34 76.6509 151.409 76.8036 151.53Z" fill="#263238"/>
<path d="M74.7144 83.0396C74.3278 89.9919 83.465 110.774 84.4867 118.07C81.3369 125.37 73.0828 134.695 73.0828 134.695L76.9846 138.952C76.9846 138.952 90.655 126.768 91.3646 118.28C91.9568 111.019 86.8215 83.7345 86.8215 83.7345L74.7144 83.0396Z" fill="#3F8AEF"/>
<path d="M74.7144 83.0396C74.3278 89.9919 83.465 110.774 84.4867 118.07C81.3369 125.37 73.0828 134.695 73.0828 134.695L76.9846 138.952C76.9846 138.952 90.655 126.768 91.3646 118.28C91.9568 111.019 86.8215 83.7345 86.8215 83.7345L74.7144 83.0396Z" fill="#263238"/>
<path d="M73.2033 133.703L78.3077 138.551L76.9314 139.413L72.2598 135.21L73.2033 133.703Z" fill="#3F8AEF"/>
<path opacity="0.3" d="M77.655 96.2383C79.7974 102.854 82.5463 110.058 83.8304 114.977C84.0647 109.625 83.8838 100.094 80.1415 94.9116C78.3928 92.4749 77.7047 93.6951 77.655 96.2383Z" fill="black"/>
<path d="M72.3877 83.1211C69.7309 90.4314 71.7988 106.943 71.9409 118.776C71.1463 127.693 72.2105 141.226 72.2105 141.226L77.0025 141.424C77.0025 141.424 78.4495 125.462 79.4359 115.506C80.2696 107.12 83.2558 83.5298 83.2558 83.5298L72.3877 83.1211Z" fill="#3F8AEF"/>
<path d="M72.2375 82.8651C69.5807 90.1755 71.7989 106.943 71.9406 118.776C71.1461 127.693 72.2103 141.226 72.2103 141.226L77.0022 141.424C77.0022 141.424 78.4493 125.462 79.4356 115.506C80.2693 107.12 83.2555 83.5298 83.2555 83.5298L72.2375 82.8651Z" fill="#263238"/>
<path d="M71.5115 140.038L77.726 140.211L77.3428 141.939L71.8484 142.095L71.5115 140.038Z" fill="#3F8AEF"/>
<path d="M78.0024 151.757C77.7185 152.03 76.9702 151.899 76.5482 151.799C76.518 151.791 76.4945 151.766 76.488 151.736C76.4812 151.707 76.4925 151.678 76.5163 151.661C76.6193 151.59 77.5485 150.969 77.9351 151.14C78.0231 151.179 78.0847 151.261 78.0983 151.356C78.1323 151.478 78.1075 151.609 78.031 151.711C78.0245 151.728 78.015 151.744 78.0024 151.757ZM76.7577 151.675C77.3217 151.789 77.7403 151.771 77.8926 151.633C77.9596 151.56 77.9813 151.457 77.9494 151.363C77.9473 151.321 77.9211 151.284 77.882 151.267C77.6797 151.179 77.1371 151.445 76.7577 151.682V151.675Z" fill="#3F8AEF"/>
<path d="M76.6013 151.771C76.5782 151.784 76.5499 151.784 76.5268 151.771C76.5037 151.757 76.488 151.734 76.4843 151.707C76.4809 151.668 76.4275 150.746 76.7502 150.441C76.8325 150.358 76.9508 150.321 77.0657 150.342C77.1929 150.345 77.3024 150.432 77.3353 150.555C77.3364 150.879 77.2089 151.19 76.9807 151.42C76.8743 151.557 76.7461 151.675 76.6013 151.771ZM76.6298 151.562C76.9205 151.321 77.2469 150.803 77.1901 150.583C77.1796 150.548 77.1548 150.491 77.0589 150.491C76.9861 150.479 76.912 150.503 76.8603 150.555L76.8284 150.59C76.6751 150.89 76.6064 151.226 76.6298 151.562Z" fill="#3F8AEF"/>
<path d="M75.423 62.4807H74.25V69.3909H75.423V62.4807Z" fill="#FAFAFA"/>
<path d="M72.6754 62.4807H71.5024V69.3909H72.6754V62.4807Z" fill="#FAFAFA"/>
<path d="M78.814 67.1218C79.5219 64.1001 77.6463 61.0767 74.6246 60.3688C71.603 59.6609 68.5796 61.5365 67.8717 64.5581C67.1637 67.5798 69.0394 70.6032 72.061 71.3111C75.0826 72.019 78.1061 70.1434 78.814 67.1218Z" stroke="#FAFAFA" stroke-miterlimit="10"/>
<path d="M121.422 39.205V42.2181H41.8757V39.205C41.8757 37.693 43.1004 36.4659 44.6124 36.4659H118.683C120.195 36.4656 121.422 37.693 121.422 39.205Z" fill="#3F8AEF"/>
<path d="M121.421 87.0559V88.2207C121.421 89.7314 120.194 90.9584 118.684 90.9584H44.6111C43.1008 90.9584 41.8755 89.731 41.8755 88.2207V87.0559H121.421Z" fill="#3F8AEF"/>
<path d="M57.5842 40.8346H45.9623C45.266 40.8346 44.7019 40.2702 44.7019 39.5742C44.7019 38.8782 45.2663 38.3138 45.9623 38.3138H57.5842C58.2805 38.3138 58.8445 38.8782 58.8445 39.5742C58.8445 40.2702 58.2801 40.8346 57.5842 40.8346Z" stroke="white" stroke-width="0.5" stroke-miterlimit="10"/>
<path d="M63.8927 40.8346H62.1835C61.4872 40.8346 60.9231 40.2702 60.9231 39.5742C60.9231 38.8782 61.4875 38.3138 62.1835 38.3138H63.8927C64.5886 38.3138 65.153 38.8782 65.153 39.5742C65.1534 40.2702 64.589 40.8346 63.8927 40.8346Z" stroke="white" stroke-width="0.5" stroke-miterlimit="10"/>
<path d="M96.8941 85.7642H48.8412C46.0165 85.7642 43.7266 83.4743 43.7266 80.6496V48.8804C43.7266 46.0556 46.0165 43.7657 48.8412 43.7657H96.8937C99.7184 43.7657 102.008 46.0556 102.008 48.8804V80.6496C102.009 83.4743 99.7188 85.7642 96.8941 85.7642Z" stroke="white" stroke-width="0.5" stroke-miterlimit="10"/>
<path d="M61.6315 60.3172H41.091C39.542 60.3172 38.2864 59.0616 38.2864 57.5126V50.1937C38.2864 48.645 39.542 47.3894 41.091 47.3894H61.6315C63.1805 47.3894 64.4361 48.645 64.4361 50.1941V57.5129C64.4358 59.0616 63.1802 60.3172 61.6315 60.3172Z" fill="#3F8AEF"/>
<path d="M65.4374 49.5951V58.1107C65.4374 59.33 64.4507 60.3166 63.2315 60.3166H55.3628C52.9754 61.1374 54.4697 64.434 54.5234 64.5517C54.0154 64.3725 53.6037 64.1372 53.2668 63.87C51.5504 62.509 51.8068 60.3166 51.8068 60.3166H41.4942C40.275 60.3166 39.2883 59.33 39.2883 58.1107V49.5951C39.2883 48.3758 40.275 47.3892 41.4942 47.3892H63.2315C64.4507 47.3892 65.4374 48.3758 65.4374 49.5951Z" fill="#3F8AEF"/>
<path opacity="0.2" d="M64.4347 49.5951V58.1107C64.4347 59.33 63.448 60.3166 62.2315 60.3166H54.3602C52.6197 60.9157 52.943 62.8326 53.2667 63.87C51.5504 62.509 51.8068 60.3166 51.8068 60.3166H40.4916C39.2723 60.3166 38.2856 59.33 38.2856 58.1107V49.5951C38.2856 48.3758 39.2723 47.3892 40.4916 47.3892H62.2315C63.448 47.3892 64.4347 48.3758 64.4347 49.5951Z" fill="white"/>
<path d="M62.3981 49.4421H40.188V50.6196H62.3981V49.4421Z" fill="#3F8AEF"/>
<path d="M62.3981 51.6028H40.188V52.7802H62.3981V51.6028Z" fill="#3F8AEF"/>
<path d="M62.3981 53.7635H40.188V54.941H62.3981V53.7635Z" fill="#3F8AEF"/>
<path opacity="0.1" d="M62.3981 49.4421H40.188V50.6196H62.3981V49.4421Z" fill="black"/>
<path opacity="0.1" d="M62.3981 51.6028H40.188V52.7802H62.3981V51.6028Z" fill="black"/>
<path opacity="0.1" d="M62.3981 53.7635H40.188V54.941H62.3981V53.7635Z" fill="black"/>
</svg>
