<svg width="170" height="170" viewBox="0 0 170 170" fill="none" xmlns="http://www.w3.org/2000/svg">
<path d="M170 130.015H0V130.1H170V130.015Z" fill="#EBEBEB"/>
<path d="M152.966 135.488H141.705V135.573H152.966V135.488Z" fill="#EBEBEB"/>
<path d="M112.615 136.411H109.659V136.496H112.615V136.411Z" fill="#EBEBEB"/>
<path d="M141.365 132.331H134.839V132.416H141.365V132.331Z" fill="#EBEBEB"/>
<path d="M32.5217 132.902H17.8361V132.987H32.5217V132.902Z" fill="#EBEBEB"/>
<path d="M37.7023 132.902H35.5491V132.987H37.7023V132.902Z" fill="#EBEBEB"/>
<path d="M76.55 134.338H44.7002V134.423H76.55V134.338Z" fill="#EBEBEB"/>
<path d="M80.5847 114.852H14.9311C13.8611 114.852 12.9904 113.981 12.9904 112.911V20.6244C12.9904 19.5545 13.8611 18.6837 14.9311 18.6837H80.5847C81.6544 18.6837 82.5251 19.5545 82.5251 20.6244V112.911C82.5251 113.981 81.6544 114.852 80.5847 114.852ZM14.9311 18.7691C13.9077 18.7691 13.0754 19.6014 13.0754 20.6248V112.912C13.0754 113.935 13.9077 114.767 14.9311 114.767H80.5847C81.6078 114.767 82.4401 113.935 82.4401 112.912V20.6244C82.4401 19.6014 81.6078 18.7687 80.5847 18.7687L14.9311 18.7691Z" fill="#EBEBEB"/>
<path d="M154.125 114.852H88.4721C87.4021 114.852 86.5317 113.981 86.5317 112.911V20.6244C86.5317 19.5545 87.4025 18.6837 88.4721 18.6837H154.125C155.196 18.6837 156.066 19.5545 156.066 20.6244V112.911C156.066 113.981 155.196 114.852 154.125 114.852ZM88.4721 18.7691C87.4491 18.7691 86.6167 19.6014 86.6167 20.6248V112.912C86.6167 113.935 87.4491 114.767 88.4721 114.767H154.125C155.149 114.767 155.981 113.935 155.981 112.912V20.6244C155.981 19.6014 155.149 18.7687 154.125 18.7687L88.4721 18.7691Z" fill="#EBEBEB"/>
<path d="M30.0782 130.015H40.08L40.08 93.8159H30.0782L30.0782 130.015Z" fill="#E6E6E6"/>
<path d="M31.8114 130.015H30.0781V125.086H33.6284L31.8114 130.015Z" fill="#F0F0F0"/>
<path d="M96.0334 130.015H106.035V93.8159H96.0334V130.015Z" fill="#E6E6E6"/>
<path d="M30.0783 126.99L97.5459 126.99V93.8157H30.0783V126.99Z" fill="#F0F0F0"/>
<path d="M31.4227 104.384L96.2012 104.384V95.2866H31.4227V104.384Z" fill="#E6E6E6"/>
<path d="M50.4726 98.1135H77.1511C79.8806 98.1135 82.4901 96.9912 84.3676 95.0096H43.2565C45.1336 96.9912 47.7431 98.1135 50.4726 98.1135Z" fill="#F0F0F0"/>
<path d="M95.8127 130.015H97.5456V125.086H93.9954L95.8127 130.015Z" fill="#F0F0F0"/>
<path d="M31.4227 114.952L96.2012 114.952V105.854H31.4227V114.952Z" fill="#E6E6E6"/>
<path d="M50.4726 108.682H77.1511C79.8806 108.682 82.4901 107.559 84.3676 105.578H43.2565C45.1336 107.559 47.7431 108.682 50.4726 108.682Z" fill="#F0F0F0"/>
<path d="M31.4227 125.52L96.2012 125.52V116.422H31.4227V125.52Z" fill="#E6E6E6"/>
<path d="M50.4726 119.25H77.1511C79.8806 119.25 82.4901 118.127 84.3676 116.146H43.2565C45.1336 118.127 47.7431 119.25 50.4726 119.25Z" fill="#F0F0F0"/>
<path d="M28.604 83.2014H68.0569V34.3407L28.604 34.3407L28.604 83.2014Z" fill="#E6E6E6"/>
<path d="M24.1159 83.2014H66.9127V34.3407L24.1159 34.3407L24.1159 83.2014Z" fill="#F0F0F0"/>
<path d="M63.3276 79.6163L63.3276 37.9261L27.7018 37.9261L27.7018 79.6163H63.3276Z" fill="white"/>
<path d="M94.8943 81.983H148.354V33.8016L94.8943 33.8016V81.983Z" fill="#EBEBEB"/>
<path d="M93.4893 81.983H147.698V33.8016L93.4893 33.8016V81.983Z" fill="#F5F5F5"/>
<path d="M99.0246 84.594H148.354V81.9831H99.0246V84.594Z" fill="#EBEBEB"/>
<path d="M91.4251 84.594H137.891V81.9831H91.4251V84.594Z" fill="#F0F0F0"/>
<path d="M145.731 80.0162V35.7686L95.4564 35.7686V80.0162H145.731Z" fill="#FAFAFA"/>
<path d="M137.891 80.0163L121.096 35.7687H113.169L129.963 80.0163H137.891Z" fill="white"/>
<path d="M144.786 76.921C144.883 76.921 144.961 76.8428 144.961 76.7462V37.0828C144.961 36.9863 144.883 36.9081 144.786 36.9081C144.689 36.9081 144.611 36.9863 144.611 37.0828V76.7459C144.611 76.8424 144.689 76.921 144.786 76.921Z" fill="#F0F0F0"/>
<path d="M128.26 80.0163L111.466 35.7687H108.375L125.169 80.0163H128.26Z" fill="white"/>
<path d="M120.931 80.0163L104.137 35.7687H101.046L117.84 80.0163H120.931Z" fill="white"/>
<path d="M95.7063 80.0163L95.7063 35.7687H95.4564L95.4564 80.0163H95.7063Z" fill="#EBEBEB"/>
<g opacity="0.7">
<path d="M93.024 37.553H146.484L146.666 36.5333H93.2053L93.024 37.553Z" fill="#EBEBEB"/>
<path d="M93.024 38.6484H146.484L146.666 37.6288H93.2053L93.024 38.6484Z" fill="#EBEBEB"/>
<path d="M93.024 39.744H146.484L146.666 38.724H93.2053L93.024 39.744Z" fill="#EBEBEB"/>
<path d="M93.024 40.8391H146.484L146.666 39.8195H93.2053L93.024 40.8391Z" fill="#EBEBEB"/>
<path d="M93.024 41.9346H146.484L146.666 40.9149H93.2053L93.024 41.9346Z" fill="#EBEBEB"/>
<path d="M93.024 43.03H146.484L146.666 42.01H93.2053L93.024 43.03Z" fill="#EBEBEB"/>
<path d="M93.024 44.1251H146.484L146.666 43.1055H93.2053L93.024 44.1251Z" fill="#EBEBEB"/>
<path d="M93.024 45.2207H146.484L146.666 44.201H93.2053L93.024 45.2207Z" fill="#EBEBEB"/>
<path d="M93.024 46.3161H146.484L146.666 45.2961H93.2053L93.024 46.3161Z" fill="#EBEBEB"/>
<path d="M93.024 47.4113H146.484L146.666 46.3916H93.2053L93.024 47.4113Z" fill="#EBEBEB"/>
<path d="M93.024 48.5067H146.484L146.666 47.4871H93.2053L93.024 48.5067Z" fill="#EBEBEB"/>
<path d="M93.024 49.6023H146.484L146.666 48.5826H93.2053L93.024 49.6023Z" fill="#EBEBEB"/>
<path d="M93.024 50.6977H146.484L146.666 49.6777H93.2053L93.024 50.6977Z" fill="#EBEBEB"/>
<path d="M93.024 51.7929H146.484L146.666 50.7732H93.2053L93.024 51.7929Z" fill="#EBEBEB"/>
<path d="M93.024 52.8883H146.484L146.666 51.8687H93.2053L93.024 52.8883Z" fill="#EBEBEB"/>
<path d="M93.024 53.9839H146.484L146.666 52.9639H93.2053L93.024 53.9839Z" fill="#EBEBEB"/>
<path d="M93.024 55.079H146.484L146.666 54.0593H93.2053L93.024 55.079Z" fill="#EBEBEB"/>
<path d="M93.024 56.1744H146.484L146.666 55.1548H93.2053L93.024 56.1744Z" fill="#EBEBEB"/>
<path d="M93.024 57.2699H146.484L146.666 56.2499H93.2053L93.024 57.2699Z" fill="#EBEBEB"/>
<path d="M93.024 58.3651H146.484L146.666 57.3455H93.2053L93.024 58.3651Z" fill="#EBEBEB"/>
<path d="M93.024 59.4606H146.484L146.666 58.4409H93.2053L93.024 59.4606Z" fill="#EBEBEB"/>
<path d="M93.024 60.556H146.484L146.666 59.5364H93.2053L93.024 60.556Z" fill="#EBEBEB"/>
<path d="M93.024 61.6511H146.484L146.666 60.6315H93.2053L93.024 61.6511Z" fill="#EBEBEB"/>
<path d="M93.024 62.7466H146.484L146.666 61.7269H93.2053L93.024 62.7466Z" fill="#EBEBEB"/>
</g>
<path d="M83.5429 88.5135C83.5429 91.4423 79.6941 93.8162 74.9463 93.8162C70.1985 93.8162 66.3497 91.442 66.3497 88.5135H83.5429Z" fill="#EBEBEB"/>
<path d="M60.9519 88.5135C60.9519 91.4423 57.1031 93.8162 52.3553 93.8162C47.6076 93.8162 43.7588 91.442 43.7588 88.5135H60.9519Z" fill="#EBEBEB"/>
<path d="M126.002 128.03H132.158V96.6853H126.002V128.03Z" fill="#F0F0F0"/>
<path d="M100.621 130.016H130.976V128.03H100.621V130.016Z" fill="#F0F0F0"/>
<path d="M126.002 96.6852H99.4385V128.029H126.002V96.6852Z" fill="#F5F5F5"/>
<path d="M123.582 100.543H101.859V110.823H123.582V100.543Z" fill="#F0F0F0"/>
<path d="M123.582 113.892H101.859V124.171H123.582V113.892Z" fill="#F0F0F0"/>
<path d="M110.244 106.388H115.196C115.506 106.388 115.759 106.135 115.759 105.825V105.542C115.759 105.232 115.506 104.979 115.196 104.979H110.244C109.935 104.979 109.681 105.232 109.681 105.542V105.825C109.681 106.135 109.935 106.388 110.244 106.388Z" fill="#F5F5F5"/>
<path d="M110.244 119.736H115.196C115.506 119.736 115.759 119.483 115.759 119.173V118.889C115.759 118.58 115.506 118.326 115.196 118.326H110.244C109.935 118.326 109.681 118.58 109.681 118.889V119.173C109.681 119.483 109.935 119.736 110.244 119.736Z" fill="#F5F5F5"/>
<path d="M85 145.371C121.408 145.371 150.922 143.647 150.922 141.521C150.922 139.395 121.408 137.671 85 137.671C48.5922 137.671 19.0778 139.395 19.0778 141.521C19.0778 143.647 48.5922 145.371 85 145.371Z" fill="#F5F5F5"/>
<path d="M30.1151 60.1525H29.7751V66.6801H30.1151V60.1525Z" fill="#3F8AEF"/>
<path d="M30.1151 69.1444H29.7751V72.1419H30.1151V69.1444Z" fill="#3F8AEF"/>
<path d="M34.441 43.9657H122.838C124.816 43.9657 126.435 45.5841 126.435 47.5626V102.963C126.435 104.941 124.816 106.56 122.838 106.56H34.441C32.4629 106.56 30.8441 104.942 30.8441 102.963V47.5622C30.8441 45.5841 32.4629 43.9657 34.441 43.9657Z" fill="#3F8AEF"/>
<path d="M34.441 105.361C33.1187 105.361 32.043 104.285 32.043 102.963V47.5626C32.043 46.2403 33.1187 45.1646 34.441 45.1646H122.838C124.16 45.1646 125.236 46.2403 125.236 47.5626V102.963C125.236 104.285 124.16 105.361 122.838 105.361L34.441 105.361Z" fill="white"/>
<path opacity="0.6" d="M67.849 95.6824V105.361H89.4298V95.6824C89.4298 93.8093 87.9114 92.2909 86.0383 92.2909H71.2405C69.3674 92.2909 67.849 93.8093 67.849 95.6824Z" fill="#3F8AEF"/>
<path opacity="0.6" d="M95.1249 95.6824V105.361H116.706V95.6824C116.706 93.8093 115.187 92.2909 113.314 92.2909H98.5164C96.6433 92.2909 95.1249 93.8093 95.1249 95.6824Z" fill="#3F8AEF"/>
<path opacity="0.6" d="M40.5736 95.6824V105.361H62.1544V95.6824C62.1544 93.8093 60.636 92.2909 58.7629 92.2909H43.9651C42.0921 92.2909 40.5736 93.8093 40.5736 95.6824Z" fill="#3F8AEF"/>
<path d="M109.579 51.2271H115.84C116.316 51.2271 116.706 50.8374 116.706 50.3611C116.706 49.8848 116.316 49.4951 115.84 49.4951H109.579C109.102 49.4951 108.713 49.8848 108.713 50.3611C108.713 50.8371 109.102 51.2271 109.579 51.2271Z" fill="#3F8AEF"/>
<path d="M88.2684 51.7265C89.0225 51.7265 89.6338 51.1152 89.6338 50.361C89.6338 49.6069 89.0225 48.9956 88.2684 48.9956C87.5143 48.9956 86.903 49.6069 86.903 50.361C86.903 51.1152 87.5143 51.7265 88.2684 51.7265Z" fill="#3F8AEF"/>
<path d="M85.3855 50.361C85.3855 51.1152 84.7742 51.7265 84.0201 51.7265C83.266 51.7265 82.6547 51.1152 82.6547 50.361C82.6547 49.6069 83.266 48.9956 84.0201 48.9956C84.7742 48.9956 85.3855 49.6069 85.3855 50.361Z" fill="#3F8AEF"/>
<path d="M42.8258 51.7598H41.119C40.8191 51.7598 40.5736 51.5143 40.5736 51.2144V49.5076C40.5736 49.2078 40.8191 48.9623 41.119 48.9623H42.8258C43.1256 48.9623 43.3711 49.2078 43.3711 49.5076V51.2144C43.3711 51.5143 43.1256 51.7598 42.8258 51.7598Z" fill="#3F8AEF"/>
<path opacity="0.2" d="M51.8299 50.7939H48.5662C48.3282 50.7939 48.1334 50.599 48.1334 50.361C48.1334 50.123 48.3282 49.9282 48.5662 49.9282H51.8299C52.0679 49.9282 52.2627 50.123 52.2627 50.361C52.2631 50.599 52.0682 50.7939 51.8299 50.7939Z" fill="#263238"/>
<path opacity="0.2" d="M58.2022 50.7939H54.9386C54.7006 50.7939 54.5057 50.599 54.5057 50.361C54.5057 50.123 54.7006 49.9282 54.9386 49.9282H58.2022C58.4402 49.9282 58.635 50.123 58.635 50.361C58.6354 50.599 58.4406 50.7939 58.2022 50.7939Z" fill="#263238"/>
<path opacity="0.2" d="M64.5745 50.7939H61.3109C61.0729 50.7939 60.8781 50.599 60.8781 50.361C60.8781 50.123 61.0729 49.9282 61.3109 49.9282H64.5745C64.8125 49.9282 65.0074 50.123 65.0074 50.361C65.0077 50.599 64.8129 50.7939 64.5745 50.7939Z" fill="#263238"/>
<path opacity="0.2" d="M70.9467 50.7939H67.6831C67.4451 50.7939 67.2502 50.599 67.2502 50.361C67.2502 50.123 67.4451 49.9282 67.6831 49.9282H70.9467C71.1847 49.9282 71.3795 50.123 71.3795 50.361C71.3799 50.599 71.1851 50.7939 70.9467 50.7939Z" fill="#263238"/>
<path opacity="0.4" d="M140.395 84.0127L71.4969 86.3661C69.5198 86.4338 67.847 84.8715 67.7793 82.8941L67.0935 62.8235C67.0259 60.8464 68.5882 59.1736 70.5656 59.106L139.464 56.7525C141.441 56.6848 143.114 58.2471 143.181 60.2246L143.867 80.2948C143.935 82.2722 142.372 83.945 140.395 84.0127Z" fill="#3F8AEF"/>
<path opacity="0.4" d="M97.1087 73.6076L75.6231 74.3417C74.4698 74.3811 73.494 73.4696 73.4546 72.3163C73.4152 71.163 74.3267 70.1872 75.48 70.1478L96.9659 69.4137C98.1192 69.3743 99.095 70.2858 99.1345 71.4391C99.1736 72.5924 98.262 73.5685 97.1087 73.6076Z" fill="#3F8AEF"/>
<path opacity="0.4" d="M90.0375 80.2254L75.8408 80.7102C74.6875 80.7497 73.7117 79.8381 73.6723 78.6849C73.6328 77.5316 74.5444 76.5558 75.6976 76.5164L89.8943 76.0315C91.0476 75.9921 92.0234 76.9036 92.0629 78.0569C92.102 79.2102 91.1908 80.186 90.0375 80.2254Z" fill="#3F8AEF"/>
<path d="M141.713 72.2697L142.327 74.1768L144.586 72.1116C144.586 72.1116 144.037 71.7284 143.129 71.2558C142.75 71.0583 142.283 71.1991 142.082 71.5765L141.713 72.2697Z" fill="#7F3E3B"/>
<path d="M144.567 75.7472L145.542 73.476L144.586 72.1116L142.327 74.1767L144.567 75.7472Z" fill="#7F3E3B"/>
<path d="M120.152 58.2553C118.991 59.8163 117.791 61.283 116.511 62.7263C115.231 64.1642 113.895 65.5606 112.398 66.8767L112.315 66.9501L112.152 67.0827C112.044 67.1691 111.921 67.2442 111.8 67.3153C111.554 67.4496 111.291 67.5526 111.041 67.6091C110.532 67.7311 110.092 67.7063 109.714 67.6495C108.96 67.5234 108.411 67.2691 107.903 67.01C106.901 66.4813 106.105 65.8482 105.338 65.2046C103.824 63.8949 102.53 62.4815 101.319 60.9393L102.679 59.6483C104.095 60.804 105.578 61.9518 107.06 62.9283C107.796 63.4152 108.563 63.8527 109.262 64.1394C109.604 64.2791 109.946 64.3675 110.128 64.3641C110.215 64.3631 110.256 64.3457 110.203 64.3451C110.183 64.3478 110.138 64.3539 110.098 64.3763C110.075 64.3828 110.056 64.3991 110.036 64.409C110.027 64.4141 110.018 64.4205 110.01 64.428L110.055 64.3804C110.676 63.747 111.28 63.0684 111.884 62.3873C112.483 61.6985 113.074 60.9933 113.663 60.2851C114.83 58.8646 116.003 57.4036 117.132 55.9729L120.152 58.2553Z" fill="#7F3E3B"/>
<path d="M101.391 56.6841L98.7428 57.226L100.045 59.5435L102.4 57.7187L101.391 56.6841Z" fill="#7F3E3B"/>
<path d="M102.736 60.1341L102.4 57.7188L100.045 59.5435C100.045 59.5435 100.409 61.6454 102.076 61.6454L102.736 60.1341Z" fill="#7F3E3B"/>
<path d="M102.913 59.6506C102.772 59.6506 102.658 59.7649 102.658 59.9056C102.658 59.9254 102.665 59.943 102.669 59.9617C102.635 59.9451 102.599 59.9342 102.559 59.9342C102.418 59.9342 102.304 60.0484 102.304 60.1892C102.304 60.2154 102.311 60.2392 102.319 60.263C102.313 60.2626 102.309 60.2599 102.304 60.2599C102.163 60.2599 102.049 60.3742 102.049 60.5149C102.049 60.572 102.071 60.622 102.103 60.6645C102.101 60.6645 102.1 60.6635 102.098 60.6635C101.957 60.6635 101.843 60.7777 101.843 60.9185C101.843 60.9766 101.866 61.0276 101.899 61.0705C101.783 61.0946 101.694 61.1925 101.694 61.3153C101.694 61.3982 101.736 61.4686 101.798 61.5152C101.701 61.5512 101.63 61.6427 101.63 61.7525C101.63 61.8933 101.744 62.0075 101.885 62.0075C102.026 62.0075 102.14 61.8933 102.14 61.7525C102.14 61.6696 102.098 61.5992 102.037 61.5526C102.134 61.5166 102.204 61.4251 102.204 61.3153C102.204 61.2571 102.182 61.2061 102.149 61.1633C102.264 61.1392 102.353 61.0416 102.353 60.9185C102.353 60.8614 102.33 60.8114 102.299 60.7689C102.301 60.7689 102.302 60.7699 102.303 60.7699C102.444 60.7699 102.558 60.6557 102.558 60.5149C102.558 60.4887 102.551 60.4649 102.543 60.4411C102.549 60.4415 102.553 60.4442 102.558 60.4442C102.699 60.4442 102.813 60.33 102.813 60.1892C102.813 60.1695 102.806 60.1518 102.802 60.1334C102.836 60.1498 102.872 60.161 102.913 60.161C103.054 60.161 103.168 60.0467 103.168 59.906C103.168 59.7649 103.054 59.6506 102.913 59.6506Z" fill="#263238"/>
<path d="M133.994 55.6675C134.786 57.0676 135.549 58.484 136.293 59.91C137.035 61.3377 137.764 62.7718 138.474 64.2164L138.74 64.7581L138.964 65.1987L139.228 65.657L139.522 66.1293C139.933 66.76 140.373 67.4043 140.828 68.0438L143.599 71.9263L142.24 73.2186C140.958 72.1809 139.755 71.0872 138.6 69.905C138.026 69.3103 137.459 68.7031 136.916 68.0411L136.508 67.5331L136.109 66.9857C135.982 66.7882 135.836 66.5641 135.727 66.385L135.417 65.8682C134.59 64.4908 133.782 63.1036 132.987 61.7096C132.194 60.3143 131.42 58.9087 130.675 57.4875L133.994 55.6675Z" fill="#7F3E3B"/>
<path d="M121.133 46.0074C121.175 46.2046 121.105 46.3906 120.978 46.4229C120.85 46.4552 120.713 46.3216 120.671 46.1241C120.629 45.9269 120.699 45.7409 120.826 45.7086C120.954 45.6766 121.091 45.8102 121.133 46.0074Z" fill="#263238"/>
<path d="M121.123 46.3862C121.123 46.3862 120.92 47.6364 120.548 48.3089C120.962 48.5473 121.518 48.2501 121.518 48.2501L121.123 46.3862Z" fill="#630F0F"/>
<path d="M120.611 44.8103C120.574 44.8103 120.537 44.7926 120.514 44.7596C120.476 44.7062 120.489 44.6324 120.543 44.5947C120.562 44.5814 121.018 44.269 121.614 44.5141C121.674 44.5389 121.703 44.608 121.679 44.6685C121.654 44.729 121.584 44.7579 121.524 44.7327C121.046 44.5359 120.682 44.7858 120.679 44.7885C120.658 44.8031 120.634 44.8103 120.611 44.8103Z" fill="#263238"/>
<path d="M127.916 46.6348C128.136 48.9318 127.811 51.1561 128.325 53.1532C128.325 53.1532 127.754 55.0069 124.358 55.0069C120.625 55.0069 122.646 53.1536 122.646 53.1536C124.702 52.667 124.708 51.1551 124.408 49.7356L127.916 46.6348Z" fill="#7F3E3B"/>
<path d="M128.79 53.7893C129.08 53.2025 129.401 52.531 128.799 52.3209C128.137 52.0893 124.476 51.8534 123.194 52.2879C121.912 52.7224 122.225 53.9124 122.225 53.9124L128.79 53.7893Z" fill="#263238"/>
<path d="M136.07 137.385C136.316 137.333 136.572 137.225 136.748 137.14C136.771 137.129 136.786 137.105 136.784 137.079C136.783 137.053 136.766 137.03 136.742 137.021C136.632 136.981 135.658 136.636 135.395 136.85C135.354 136.884 135.309 136.946 135.325 137.052C135.346 137.196 135.414 137.299 135.527 137.359C135.669 137.434 135.867 137.428 136.07 137.385ZM136.545 137.091C136.111 137.278 135.76 137.336 135.587 137.244C135.512 137.204 135.468 137.135 135.453 137.033C135.445 136.983 135.462 136.963 135.477 136.95C135.613 136.839 136.153 136.963 136.545 137.091Z" fill="#3F8AEF"/>
<path d="M136.733 137.145C136.745 137.142 136.757 137.137 136.766 137.127C136.782 137.111 136.789 137.086 136.782 137.064C136.773 137.031 136.545 136.275 136.181 136.087C136.086 136.039 135.989 136.031 135.894 136.064C135.747 136.114 135.727 136.216 135.728 136.272C135.735 136.582 136.393 137.053 136.701 137.144C136.712 137.147 136.723 137.147 136.733 137.145ZM135.964 136.178C136.016 136.167 136.068 136.175 136.121 136.203C136.355 136.323 136.536 136.753 136.615 136.972C136.296 136.822 135.862 136.452 135.858 136.269C135.857 136.253 135.856 136.214 135.936 136.186C135.945 136.183 135.955 136.18 135.964 136.178Z" fill="#3F8AEF"/>
<path d="M118.548 139.166C118.8 139.166 119.073 139.113 119.262 139.067C119.287 139.061 119.307 139.041 119.311 139.015C119.315 138.989 119.303 138.964 119.281 138.95C119.182 138.888 118.301 138.347 118 138.502C117.953 138.526 117.896 138.577 117.889 138.685C117.88 138.829 117.925 138.944 118.022 139.027C118.146 139.13 118.34 139.166 118.548 139.166ZM119.075 138.977C118.611 139.069 118.255 139.053 118.106 138.927C118.04 138.872 118.012 138.796 118.018 138.693C118.021 138.642 118.042 138.626 118.059 138.617C118.216 138.536 118.717 138.77 119.075 138.977Z" fill="#3F8AEF"/>
<path d="M119.247 139.069C119.259 139.069 119.272 139.066 119.283 139.059C119.302 139.046 119.313 139.023 119.312 138.999C119.309 138.966 119.244 138.179 118.927 137.92C118.844 137.852 118.751 137.824 118.651 137.836C118.497 137.855 118.456 137.951 118.446 138.006C118.388 138.31 118.934 138.908 119.217 139.061C119.226 139.067 119.237 139.069 119.247 139.069ZM118.696 137.963C118.749 137.963 118.798 137.982 118.845 138.02C119.048 138.186 119.135 138.645 119.167 138.875C118.886 138.662 118.539 138.21 118.573 138.03C118.576 138.014 118.583 137.976 118.667 137.965C118.677 137.964 118.686 137.963 118.696 137.963Z" fill="#3F8AEF"/>
<path d="M122.185 138.971H119.687L119.662 133.186H122.159L122.185 138.971Z" fill="#7F3E3B"/>
<path d="M139.641 136.53L137.198 137.05L134.984 131.608L137.427 131.087L139.641 136.53Z" fill="#7F3E3B"/>
<path d="M136.975 136.802L139.72 136.217C139.82 136.196 139.918 136.247 139.957 136.341L140.818 138.428C140.907 138.644 140.767 138.897 140.536 138.942C139.575 139.129 139.099 139.172 137.893 139.429C137.15 139.587 135.634 139.991 134.608 140.209C133.605 140.422 133.272 139.433 133.676 139.251C135.487 138.435 136.097 137.712 136.605 137.037C136.696 136.916 136.829 136.833 136.975 136.802Z" fill="#263238"/>
<path d="M119.715 138.681H122.442C122.544 138.681 122.63 138.752 122.648 138.852L123.056 141.072C123.098 141.302 122.915 141.52 122.68 141.516C121.696 141.5 120.277 141.442 119.04 141.442C117.594 141.442 116.342 141.521 114.646 141.521C113.621 141.521 113.376 140.484 113.809 140.39C115.78 139.963 117.377 139.917 119.106 138.876C119.293 138.763 119.499 138.681 119.715 138.681Z" fill="#263238"/>
<path d="M133.091 53.718C135.411 54.2548 137.85 60.6373 137.85 60.6373L133.023 63.8598C133.023 63.8598 131.338 61.368 130.122 58.58C128.847 55.6587 130.718 53.1692 133.091 53.718Z" fill="#3F8AEF"/>
<path opacity="0.2" d="M131.256 57.7877L133.251 63.7068L133.025 63.8598C133.025 63.8598 132.114 62.51 131.144 60.6876L131.256 57.7877Z" fill="black"/>
<path d="M117.508 64.8754C117.526 67.6634 117.695 71.1314 118.111 75.4358H131.473C131.644 73.3856 130.741 63.3794 133.09 53.7166C133.09 53.7166 130.819 53.2576 128.64 53.1522C126.937 53.0706 124.467 53.0162 122.962 53.1522C120.977 53.3324 119.094 53.8458 119.094 53.8458C119.094 53.8458 117.951 55.0834 117.604 60.8872C117.537 62.033 117.499 63.3522 117.508 64.8754Z" fill="#3F8AEF"/>
<path opacity="0.2" d="M117.508 64.8754C118.317 63.3998 119.784 60.4384 119.577 58.752L117.605 60.8872C117.537 62.033 117.499 63.3522 117.508 64.8754Z" fill="black"/>
<path d="M121.714 56.1057C121.925 58.4745 116.529 64.2107 116.529 64.2107L112.204 60.6879C112.204 60.6879 113.982 57.6058 116.246 55.4166C118.775 52.9713 121.477 53.4374 121.714 56.1057Z" fill="#3F8AEF"/>
<g opacity="0.2">
<path d="M119.662 133.188L119.675 136.169H122.174L122.161 133.188H119.662Z" fill="black"/>
<path d="M137.428 131.089L134.984 131.609L136.127 134.414L138.57 133.894L137.428 131.089Z" fill="black"/>
</g>
<path d="M127.56 43.9439C127.925 46.4035 128.263 47.8199 127.315 49.369C125.889 51.6993 122.693 51.3379 121.608 49.0647C120.632 47.0182 120.197 43.3401 122.341 41.7829C124.453 40.2492 127.194 41.4844 127.56 43.9439Z" fill="#7F3E3B"/>
<path d="M123.079 46.0193C121.847 46.2257 121.152 44.8103 122.1 43.5955C120.302 43.6757 119.537 42.755 120.34 41.1084C121.03 39.6926 123.192 40.3845 123.192 40.3845C123.192 40.3845 125.001 37.9532 127.14 39.3077C129.433 40.7599 128.217 42.1032 128.217 42.1032C128.217 42.1032 131.512 42.5592 130.663 44.9225C130.205 46.1975 128.972 46.2968 128.972 46.2968C128.972 46.2968 129.815 48.8335 127.315 49.3694C124.815 49.9052 122.286 47.7819 123.079 46.0193Z" fill="#263238"/>
<path d="M123.839 45.3862C123.895 46.0387 123.689 46.7 123.392 47.1621C122.946 47.857 122.337 47.5864 122.137 46.8758C121.956 46.2362 121.971 45.104 122.575 44.6556C123.169 44.2136 123.775 44.6403 123.839 45.3862Z" fill="#7F3E3B"/>
<path d="M122.85 75.4358C122.85 75.4358 124.948 94.5241 126.228 101.675C127.63 109.507 134.889 134.087 134.889 134.087L139.364 133.135C139.364 133.135 134.367 110.139 133.694 102.385C132.963 93.9702 131.471 75.4358 131.471 75.4358H122.85Z" fill="#263238"/>
<path d="M133.887 132.578C133.868 132.582 134.649 134.211 134.649 134.211L139.683 133.139L139.323 131.613L133.887 132.578Z" fill="#3F8AEF"/>
<path opacity="0.2" d="M124.38 82.2368C127.632 82.8794 126.814 95.1024 126.176 101.389C125.403 96.9452 124.349 88.3942 123.638 82.3252C123.86 82.2164 124.106 82.1824 124.38 82.2368Z" fill="black"/>
<path d="M118.111 75.4358C118.111 75.4358 117.046 94.111 117.024 101.728C117 109.651 118.766 135.592 118.766 135.592H122.998C122.998 135.592 124.137 110.114 124.625 102.333C125.158 93.8502 126.893 75.4361 126.893 75.4361H118.111V75.4358Z" fill="#263238"/>
<path d="M117.507 73.6668C117.427 74.4291 117.809 75.4358 117.809 75.4358C117.809 75.4358 117.621 76.4436 117.658 76.9818C119.028 77.4636 131.863 78.0586 131.834 76.9818C131.806 75.905 131.834 75.4358 131.834 75.4358C131.834 75.4358 132.186 73.9218 131.834 73.6668C131.482 73.4118 117.602 72.76 117.507 73.6668Z" fill="#3F8AEF"/>
<path opacity="0.3" d="M117.507 73.6668C117.427 74.4291 117.809 75.4358 117.809 75.4358C117.809 75.4358 117.621 76.4436 117.658 76.9818C119.028 77.4636 131.863 78.0586 131.834 76.9818C131.806 75.905 131.834 75.4358 131.834 75.4358C131.834 75.4358 132.186 73.9218 131.834 73.6668C131.482 73.4118 117.602 72.76 117.507 73.6668Z" fill="black"/>
<path d="M118.017 133.907C117.998 133.907 118.188 135.664 118.188 135.664H123.335L123.535 134.096L118.017 133.907Z" fill="#3F8AEF"/>
</svg>
