<svg width="170" height="170" viewBox="0 0 170 170" fill="none" xmlns="http://www.w3.org/2000/svg">
<path d="M170 130.015H0V130.1H170V130.015Z" fill="#EBEBEB"/>
<path d="M152.966 135.488H141.705V135.573H152.966V135.488Z" fill="#EBEBEB"/>
<path d="M112.615 136.411H109.659V136.496H112.615V136.411Z" fill="#EBEBEB"/>
<path d="M141.365 132.331H134.839V132.416H141.365V132.331Z" fill="#EBEBEB"/>
<path d="M32.5217 132.902H17.8361V132.987H32.5217V132.902Z" fill="#EBEBEB"/>
<path d="M37.7023 132.902H35.5491V132.987H37.7023V132.902Z" fill="#EBEBEB"/>
<path d="M76.55 134.338H44.7002V134.423H76.55V134.338Z" fill="#EBEBEB"/>
<path d="M80.5847 114.852H14.9311C13.8611 114.852 12.9904 113.981 12.9904 112.911V20.6244C12.9904 19.5545 13.8611 18.6837 14.9311 18.6837H80.5847C81.6544 18.6837 82.5251 19.5545 82.5251 20.6244V112.911C82.5251 113.981 81.6544 114.852 80.5847 114.852ZM14.9311 18.7691C13.9077 18.7691 13.0754 19.6014 13.0754 20.6248V112.912C13.0754 113.935 13.9077 114.767 14.9311 114.767H80.5847C81.6078 114.767 82.4401 113.935 82.4401 112.912V20.6244C82.4401 19.6014 81.6078 18.7687 80.5847 18.7687L14.9311 18.7691Z" fill="#EBEBEB"/>
<path d="M154.125 114.852H88.4721C87.4021 114.852 86.5317 113.981 86.5317 112.911V20.6244C86.5317 19.5545 87.4025 18.6837 88.4721 18.6837H154.125C155.196 18.6837 156.066 19.5545 156.066 20.6244V112.911C156.066 113.981 155.196 114.852 154.125 114.852ZM88.4721 18.7691C87.4491 18.7691 86.6167 19.6014 86.6167 20.6248V112.912C86.6167 113.935 87.4491 114.767 88.4721 114.767H154.125C155.149 114.767 155.981 113.935 155.981 112.912V20.6244C155.981 19.6014 155.149 18.7687 154.125 18.7687L88.4721 18.7691Z" fill="#EBEBEB"/>
<path d="M61.0593 111.611L147.492 111.611V25.4284L61.0593 25.4284L61.0593 111.611Z" fill="#E6E6E6"/>
<path d="M55.7905 23.7498H150.675C150.944 23.7498 151.163 23.9684 151.163 24.238C151.163 24.5076 150.944 24.7259 150.675 24.7259H55.7905C55.5209 24.7259 55.3026 24.5073 55.3026 24.238C55.3026 23.968 55.5212 23.7498 55.7905 23.7498Z" fill="#E6E6E6"/>
<path d="M58.9729 111.611L146.517 111.611V25.4284L58.9729 25.4284L58.9729 111.611Z" fill="#F0F0F0"/>
<path d="M143.597 108.69L143.597 28.3491L61.8935 28.3491L61.8935 108.69L143.597 108.69Z" fill="#FAFAFA"/>
<path d="M133.51 108.69L116.369 28.3489H108.277L125.419 108.69H133.51Z" fill="white"/>
<path d="M123.68 108.69L106.539 28.3489H103.384L120.526 108.69H123.68Z" fill="white"/>
<path d="M62.2644 108.69L62.2644 28.3491H61.8935L61.8935 108.69H62.2644Z" fill="#E6E6E6"/>
<g opacity="0.4">
<path d="M143.563 126.727H148.589V22.8763H143.563V126.727Z" fill="#F0F0F0"/>
<path d="M141.605 126.727H145.521V22.8763H141.605V126.727Z" fill="#E6E6E6"/>
<path d="M138.537 126.727H143.563V22.8763H138.537V126.727Z" fill="#F0F0F0"/>
<path d="M136.579 126.727H140.495V22.8763H136.579V126.727Z" fill="#E6E6E6"/>
<path d="M133.511 126.727H138.537V22.8763H133.511V126.727Z" fill="#F0F0F0"/>
</g>
<g opacity="0.4">
<path d="M63.7643 126.727H66.6608L66.6608 22.8763H63.7643L63.7643 126.727Z" fill="#F0F0F0"/>
<path d="M62.6361 126.727H64.8927L64.8927 22.8763H62.6361L62.6361 126.727Z" fill="#E6E6E6"/>
<path d="M60.8677 126.727H63.7642L63.7642 22.8763H60.8677L60.8677 126.727Z" fill="#F0F0F0"/>
<path d="M59.7395 126.727H61.9961L61.9961 22.8763H59.7395L59.7395 126.727Z" fill="#E6E6E6"/>
<path d="M57.9712 126.727H60.8677L60.8677 22.8763H57.9712L57.9712 126.727Z" fill="#F0F0F0"/>
</g>
<path d="M78.2964 127.736H91.245V95.4978H78.2964V127.736Z" fill="#F0F0F0"/>
<path d="M21.7624 130.015H88.7587V127.736L21.7624 127.736V130.015Z" fill="#F0F0F0"/>
<path d="M78.2965 95.4978H19.2759V127.736H78.2965V95.4978Z" fill="#F5F5F5"/>
<path d="M78.5233 97.6802H19.2759V109.48H78.5233V97.6802Z" fill="#F0F0F0"/>
<path d="M78.5233 111.632H19.2759V123.432H78.5233V111.632Z" fill="#F0F0F0"/>
<path d="M78.2967 109.48H80.5366V97.68H78.2967V109.48Z" fill="#E6E6E6"/>
<path d="M78.2967 123.432H80.5366V111.632H78.2967V123.432Z" fill="#E6E6E6"/>
<path d="M17.5508 95.4978L78.2965 95.4978V93.5142L17.5508 93.5142V95.4978Z" fill="#F0F0F0"/>
<path d="M93.0546 93.5146H78.2965V95.4982H93.0546V93.5146Z" fill="#E6E6E6"/>
<path d="M33.0591 84.0987C34.0489 73.8443 34.7377 57.2044 34.2029 51.6386C34.1842 51.4455 34.0819 51.2714 33.9251 51.1568C33.4641 50.8206 32.8177 51.1599 32.8371 51.7304C32.9316 54.4881 33.0398 61.3806 32.4526 73.2711C32.1605 79.1898 31.7389 83.2436 32.0283 84.0987H33.0591Z" fill="#F0F0F0"/>
<path d="M35.8969 62.043C38.1586 59.1332 42.8336 56.8331 47.6269 56.4812C49.5088 56.3432 41.9496 60.0958 38.8386 63.8422C36.4218 66.7526 33.7199 71.5453 32.8158 74.1606C33.3445 68.7617 33.6352 64.9527 35.8969 62.043Z" fill="#F0F0F0"/>
<path d="M31.163 61.416C28.8228 58.1568 23.4209 55.6507 17.5763 55.3675C15.2816 55.2563 24.0121 59.3461 27.2697 63.538C29.8003 66.7942 32.3955 72.1879 33.1098 75.1453C33.2805 69.0072 33.5029 64.6753 31.163 61.416Z" fill="#F0F0F0"/>
<path d="M35.7417 52.457C37.5267 50.0284 41.4684 48.0353 45.6463 47.6276C47.2864 47.4675 40.9152 50.7172 38.4427 53.849C36.522 56.282 34.479 60.2566 33.8643 62.4112C33.9612 57.9973 33.9571 54.8856 35.7417 52.457Z" fill="#F0F0F0"/>
<path d="M32.1445 52.9541C30.163 50.1943 25.5887 48.072 20.6396 47.8323C18.6965 47.7381 26.0891 51.2014 28.8479 54.7506C30.9909 57.508 33.1883 62.0753 33.7932 64.5794C33.9377 59.3821 34.1261 55.7139 32.1445 52.9541Z" fill="#F0F0F0"/>
<path d="M34.5426 72.9961C35.8319 71.1649 38.7301 69.6247 41.8278 69.2588C43.044 69.115 38.3598 71.6256 36.57 73.9896C35.1798 75.8263 33.7222 78.8098 33.2982 80.4197C33.3033 77.139 33.2533 74.8274 34.5426 72.9961Z" fill="#F0F0F0"/>
<path d="M32.199 71.9655C31.0794 70.1489 28.3074 68.6172 25.2174 68.248C24.0043 68.1031 28.4828 70.5997 30.0543 72.9454C31.2749 74.7675 32.4499 77.7261 32.7182 79.3218C33.0385 76.072 33.3183 73.7821 32.199 71.9655Z" fill="#F0F0F0"/>
<path d="M32.6416 93.5147C35.108 93.5147 37.1463 92.9996 37.2877 90.537L37.6988 83.4143H27.5845L27.9955 90.537C28.137 92.9992 30.1753 93.5147 32.6416 93.5147Z" fill="#E6E6E6"/>
<path d="M27.642 85.0327H37.641C38.0466 85.0327 38.3873 84.7278 38.4319 84.3245L38.5835 82.9519C38.6355 82.481 38.2666 82.069 37.7927 82.069H27.4903C27.0164 82.069 26.6475 82.4807 26.6995 82.9519L26.8511 84.3245C26.8957 84.7278 27.2363 85.0327 27.642 85.0327Z" fill="#F0F0F0"/>
<path d="M85 145.371C121.408 145.371 150.922 143.647 150.922 141.521C150.922 139.395 121.408 137.671 85 137.671C48.5922 137.671 19.0778 139.395 19.0778 141.521C19.0778 143.647 48.5922 145.371 85 145.371Z" fill="#F5F5F5"/>
<path d="M56.0966 82.4229L137.511 82.4229V79.474L56.0966 79.474V82.4229Z" fill="#3F8AEF"/>
<path d="M129.908 140.907H128.958L124.422 82.4231H126.652L129.908 140.907Z" fill="#263238"/>
<path d="M138.891 140.907H137.941L133.404 82.4231H135.635L138.891 140.907Z" fill="#263238"/>
<path d="M63.6996 140.907H64.6492L69.1858 82.4231H66.9554L63.6996 140.907Z" fill="#263238"/>
<path d="M54.7172 140.907H55.6664L60.2031 82.4231H57.9727L54.7172 140.907Z" fill="#263238"/>
<path d="M125.095 62.6872C122.721 61.6685 119.35 58.6742 122.006 55.6131C123.55 53.8332 125.095 62.6872 125.095 62.6872Z" fill="#3F8AEF"/>
<path d="M128.865 67.6325C128.856 67.6325 128.847 67.6318 128.838 67.6301C128.744 67.6152 128.68 67.5268 128.696 67.4329C128.874 66.3249 128.61 65.1954 128.331 63.9999C127.778 61.6325 127.206 59.1842 130.154 56.7991C130.228 56.7389 130.336 56.7508 130.396 56.8246C130.456 56.8984 130.444 57.0065 130.371 57.0663C127.59 59.3161 128.113 61.553 128.666 63.9214C128.941 65.0971 129.225 66.3126 129.035 67.4877C129.021 67.5723 128.948 67.6325 128.865 67.6325Z" fill="#3F8AEF"/>
<path opacity="0.2" d="M128.865 67.6325C128.856 67.6325 128.847 67.6318 128.838 67.6301C128.744 67.6152 128.68 67.5268 128.696 67.4329C128.874 66.3249 128.61 65.1954 128.331 63.9999C127.778 61.6325 127.206 59.1842 130.154 56.7991C130.228 56.7389 130.336 56.7508 130.396 56.8246C130.456 56.8984 130.444 57.0065 130.371 57.0663C127.59 59.3161 128.113 61.553 128.666 63.9214C128.941 65.0971 129.225 66.3126 129.035 67.4877C129.021 67.5723 128.948 67.6325 128.865 67.6325Z" fill="black"/>
<path d="M131.076 67.4379C131.057 67.4379 131.038 67.4349 131.02 67.4284C130.93 67.3978 130.882 67.2999 130.913 67.2098C131.628 65.127 132.31 63.3766 132.951 61.9721C132.179 60.7216 131.364 58.9631 130.52 56.7191C130.487 56.6304 130.532 56.5311 130.621 56.4978C130.71 56.4641 130.809 56.509 130.842 56.5981C131.711 58.9118 132.473 60.505 133.124 61.5967C134.37 58.9553 135.453 57.6572 136.32 57.7955C136.991 57.9026 137.403 58.84 137.424 60.3027C137.45 62.0843 136.873 64.0016 135.724 64.2188C134.957 64.3623 134.098 63.716 133.172 62.3182C132.607 63.5772 131.964 65.2089 131.238 67.3213C131.214 67.3931 131.147 67.4379 131.076 67.4379ZM133.341 61.9483C134.512 63.784 135.294 63.9526 135.66 63.8815C136.579 63.7081 137.104 61.9282 137.081 60.3081C137.063 59.0835 136.736 58.2107 136.266 58.1355C135.96 58.0873 135.018 58.3249 133.341 61.9483Z" fill="#3F8AEF"/>
<path opacity="0.2" d="M131.076 67.4379C131.057 67.4379 131.038 67.4349 131.02 67.4284C130.93 67.3978 130.882 67.2999 130.913 67.2098C131.628 65.127 132.31 63.3766 132.951 61.9721C132.179 60.7216 131.364 58.9631 130.52 56.7191C130.487 56.6304 130.532 56.5311 130.621 56.4978C130.71 56.4641 130.809 56.509 130.842 56.5981C131.711 58.9118 132.473 60.505 133.124 61.5967C134.37 58.9553 135.453 57.6572 136.32 57.7955C136.991 57.9026 137.403 58.84 137.424 60.3027C137.45 62.0843 136.873 64.0016 135.724 64.2188C134.957 64.3623 134.098 63.716 133.172 62.3182C132.607 63.5772 131.964 65.2089 131.238 67.3213C131.214 67.3931 131.147 67.4379 131.076 67.4379ZM133.341 61.9483C134.512 63.784 135.294 63.9526 135.66 63.8815C136.579 63.7081 137.104 61.9282 137.081 60.3081C137.063 59.0835 136.736 58.2107 136.266 58.1355C135.96 58.0873 135.018 58.3249 133.341 61.9483Z" fill="white"/>
<path d="M128.31 66.3283C128.248 66.3283 128.188 66.2946 128.158 66.2362C127.962 65.8635 127.532 65.5409 127.034 65.1672C125.826 64.2611 124.173 63.0208 124.964 59.9876C124.988 59.8958 125.084 59.8411 125.174 59.8646C125.266 59.8884 125.321 59.9825 125.297 60.0743C124.564 62.8844 126.048 63.9976 127.241 64.8921C127.772 65.291 128.231 65.6354 128.462 66.0764C128.507 66.1603 128.474 66.2644 128.39 66.3086C128.365 66.3218 128.337 66.3283 128.31 66.3283Z" fill="#3F8AEF"/>
<path d="M132.76 66.5027C132.704 66.5027 132.649 66.4751 132.616 66.4248C132.564 66.3453 132.587 66.2388 132.666 66.1868C133.801 65.4446 133.547 63.7701 133.279 61.997C132.912 59.5827 132.497 56.846 135.766 56.1517C135.859 56.132 135.951 56.1915 135.97 56.2843C135.99 56.3771 135.931 56.4683 135.838 56.4883C132.886 57.1153 133.241 59.4616 133.619 61.9457C133.904 63.831 134.174 65.6116 132.854 66.4748C132.825 66.4935 132.793 66.5027 132.76 66.5027Z" fill="#3F8AEF"/>
<path d="M129.177 64.8676C133.093 64.8676 136.268 65.1923 136.268 65.5931C136.268 67.8783 134.884 71.8777 134.366 76.3358C134.158 78.1242 132.645 79.474 130.844 79.474H127.511C125.71 79.474 124.197 78.1242 123.989 76.3358C123.471 71.8777 122.087 67.8779 122.087 65.5931C122.087 65.1923 125.262 64.8676 129.177 64.8676Z" fill="#3F8AEF"/>
<path opacity="0.4" d="M129.177 64.8676C133.093 64.8676 136.268 65.1923 136.268 65.5931C136.268 67.8783 134.884 71.8777 134.366 76.3358C134.158 78.1242 132.645 79.474 130.844 79.474H127.511C125.71 79.474 124.197 78.1242 123.989 76.3358C123.471 71.8777 122.087 67.8779 122.087 65.5931C122.087 65.1923 125.262 64.8676 129.177 64.8676Z" fill="white"/>
<path d="M135.226 56.4247C138.062 57.0452 145.71 55.3673 142.67 51.9792C140.903 50.0089 135.226 56.4247 135.226 56.4247Z" fill="#3F8AEF"/>
<path d="M129.796 57.2877C132.604 56.5539 138.658 51.5879 134.412 49.9481C131.943 48.9944 129.796 57.2877 129.796 57.2877Z" fill="#3F8AEF"/>
<path opacity="0.2" d="M129.796 57.2877C132.604 56.5539 138.658 51.5879 134.412 49.9481C131.943 48.9944 129.796 57.2877 129.796 57.2877Z" fill="black"/>
<path d="M124.752 61.7188C127.628 59.1515 130.958 53.3446 125.767 50.2482C122.748 48.4472 124.752 61.7188 124.752 61.7188Z" fill="#3F8AEF"/>
<path d="M131.052 57.6317C128.282 55.1504 126.238 46.9207 130.091 46.5637C133.468 46.2512 131.052 57.6317 131.052 57.6317Z" fill="#3F8AEF"/>
<path opacity="0.2" d="M131.052 57.6317C128.282 55.1504 126.238 46.9207 130.091 46.5637C133.468 46.2512 131.052 57.6317 131.052 57.6317Z" fill="white"/>
<path d="M105.218 62.4468H95.8572L98.8719 79.4743H110.583L105.218 62.4468Z" fill="#3F8AEF"/>
<path opacity="0.2" d="M105.218 62.4478H95.8582L97.5309 71.91L107.894 70.9342L105.218 62.4478Z" fill="black"/>
<path d="M69.1256 37.6096L68.8181 43.5488L69.1577 43.5664L69.4651 37.6272L69.1256 37.6096Z" fill="#3F8AEF"/>
<path d="M68.6976 45.8543L68.5686 48.3416L68.9082 48.3592L69.0372 45.8719L68.6976 45.8543Z" fill="#3F8AEF"/>
<path d="M122.262 69.2515H70.9912C69.7135 69.2515 68.7224 68.206 68.7887 66.9283L70.4424 35.1747C70.5091 33.8969 71.609 32.8514 72.8867 32.8514H124.158C125.435 32.8514 126.426 33.8969 126.36 35.1747L124.706 66.9283C124.64 68.206 123.54 69.2515 122.262 69.2515Z" fill="#3F8AEF"/>
<path opacity="0.8" d="M71.0619 67.8915C70.5309 67.8915 70.1212 67.4594 70.149 66.9283L71.8028 35.175C71.8303 34.6439 72.2853 34.2118 72.816 34.2118H124.087C124.618 34.2118 125.028 34.6439 125 35.175L123.346 66.9283C123.319 67.4597 122.864 67.8915 122.333 67.8915H71.0619Z" fill="white"/>
<path d="M89.5854 34.2114L88.7083 51.0513H106.441L107.318 34.2114H89.5854Z" fill="white"/>
<path opacity="0.3" d="M124.087 34.2114H107.318L106.441 51.0516H124.173L125 35.1746C125.028 34.6436 124.618 34.2114 124.087 34.2114Z" fill="#3F8AEF"/>
<path opacity="0.5" d="M70.9759 51.0513L70.149 66.9279C70.1215 67.4593 70.5312 67.8911 71.0623 67.8911H87.8317L88.7086 51.0513H70.9759Z" fill="#3F8AEF"/>
<path opacity="0.6" d="M88.7083 51.0513L87.8314 67.8915H105.564L106.441 51.0513H88.7083Z" fill="white"/>
<path d="M75.8903 50.3795C75.0118 50.049 75.2069 49.3928 75.5931 48.8828C75.5619 48.537 75.5704 48.2409 75.6085 47.9723C73.7388 48.5282 72.0833 49.5584 70.9783 51.0048L70.976 51.0517H76.0875C76.0746 51.0092 76.0654 50.9697 76.0518 50.9269C75.991 50.7338 75.9386 50.5532 75.8903 50.3795Z" fill="#263238"/>
<path d="M76.0497 48.4052C76.5074 48.024 76.9113 48.2852 77.1792 47.6871C77.186 47.6664 77.1877 47.6442 77.1935 47.6232C76.6862 47.6986 76.1864 47.8054 75.7005 47.9452C75.6621 48.1934 75.6509 48.4674 75.6733 48.7819C75.7947 48.6364 75.928 48.5065 76.0497 48.4052Z" fill="#263238"/>
<path d="M88.7168 50.8889C88.1031 49.4541 86.8574 48.6772 85.3124 48.0948C84.3999 47.7507 83.3336 47.547 82.2116 47.4491C82.2834 47.6171 82.3769 47.7687 82.4999 47.8999C82.5336 48.4524 82.0372 49.0332 81.261 49.5143C81.3371 49.9124 81.4534 50.3663 81.6217 50.9015C81.638 50.9531 81.6493 51.0007 81.6646 51.0517H88.7083L88.7168 50.8889Z" fill="#263238"/>
<path d="M81.1827 49.5621C80.042 50.2425 78.3355 50.7056 76.7654 50.5587C76.4479 50.5291 76.1925 50.4781 75.9868 50.4118C76.0307 50.5675 76.079 50.7297 76.1327 50.9007C76.149 50.9524 76.1602 51 76.1755 51.051H81.5764C81.5635 51.0085 81.5543 50.9691 81.5411 50.9262C81.3765 50.4036 81.2602 49.9559 81.1827 49.5621Z" fill="#263238"/>
<path d="M81.2613 49.5139C82.0375 49.0328 82.5339 48.4521 82.5003 47.8996C82.3772 47.7687 82.2837 47.617 82.2119 47.4487C82.0399 47.0465 82.0008 46.542 82.0358 45.9541C81.9692 46.0792 81.9039 46.2003 81.842 46.3135C81.316 47.275 80.9587 47.9349 81.2613 49.5139Z" fill="#FFC3BD"/>
<path d="M77.2627 46.9405C77.2616 46.9401 77.2606 46.9401 77.2595 46.9395C77.2609 46.9571 77.2658 46.9755 77.2665 46.9928C77.2658 46.9758 77.2641 46.9581 77.2627 46.9405Z" fill="#FFC3BD"/>
<path d="M82.0456 45.2649C81.571 45.9129 81.0042 46.3876 80.2344 46.6722C80.1804 46.6922 80.1318 46.7048 80.0791 46.7232C79.0523 47.4858 77.8912 47.7948 77.2322 47.4827C77.2373 47.4572 77.2387 47.4307 77.2428 47.4049C77.2309 47.4786 77.2139 47.5514 77.1935 47.6235C77.1877 47.6446 77.186 47.6663 77.1792 47.6874C76.9113 48.2858 76.507 48.0243 76.0497 48.4055C75.928 48.5068 75.7947 48.6367 75.6733 48.7822C75.7046 49.2269 75.8012 49.7522 75.9872 50.4125C76.1929 50.4788 76.4485 50.5295 76.7658 50.5594C78.3362 50.7063 80.0423 50.2428 81.183 49.5628C80.8624 47.9319 81.2283 47.259 81.7672 46.2733C81.8566 46.1098 81.9521 45.9354 82.0504 45.7453C82.0636 45.5889 82.0817 45.4267 82.1027 45.2601C82.083 45.2622 82.0647 45.2629 82.0456 45.2649Z" fill="#FFC3BD"/>
<path d="M75.8903 50.3795C75.7257 49.7869 75.6308 49.2983 75.5931 48.8828C75.2069 49.3925 75.0117 50.049 75.8903 50.3795Z" fill="#FFC3BD"/>
<path d="M75.9869 50.4121C75.8009 49.7519 75.7044 49.2262 75.6731 48.7818C75.6506 48.4673 75.6622 48.1936 75.7003 47.9451C75.7938 47.3409 76.043 46.8789 76.3524 46.3138C76.3534 46.3117 76.3548 46.3094 76.3558 46.3073C76.3361 46.2828 76.3204 46.2543 76.3014 46.2291C76.2936 46.2434 76.2854 46.259 76.2776 46.273C75.9563 46.8608 75.6979 47.3382 75.6081 47.9723C75.5701 48.2409 75.5616 48.5367 75.5929 48.8828C75.6306 49.2986 75.7254 49.7869 75.89 50.3795C75.9383 50.5532 75.9906 50.7338 76.0515 50.9266C76.0651 50.9697 76.0739 51.0088 76.0872 51.0513H76.1753C76.16 51.0003 76.1488 50.9527 76.1324 50.9011C76.0791 50.73 76.0308 50.5679 75.9869 50.4121Z" fill="white"/>
<path opacity="0.2" d="M77.2428 47.4049C77.248 47.3722 77.2526 47.3393 77.2561 47.3063C77.2526 47.3393 77.248 47.3719 77.2428 47.4049Z" fill="black"/>
<path d="M77.2663 46.9931C77.2677 47.0179 77.266 47.0421 77.2663 47.0665C77.2677 47.1475 77.2643 47.2277 77.2558 47.3062C77.2524 47.3392 77.2479 47.3722 77.2428 47.4048C77.2388 47.4307 77.2374 47.4572 77.2323 47.4827C77.8912 47.7948 79.0523 47.4858 80.0791 46.7231C78.8742 47.1434 77.9449 47.1852 77.2626 46.9407C77.2639 46.9581 77.2656 46.9758 77.2663 46.9931Z" fill="#FFC3BD"/>
<path opacity="0.2" d="M77.2663 46.9931C77.2677 47.0179 77.266 47.0421 77.2663 47.0665C77.2677 47.1475 77.2643 47.2277 77.2558 47.3062C77.2524 47.3392 77.2479 47.3722 77.2428 47.4048C77.2388 47.4307 77.2374 47.4572 77.2323 47.4827C77.8912 47.7948 79.0523 47.4858 80.0791 46.7231C78.8742 47.1434 77.9449 47.1852 77.2626 46.9407C77.2639 46.9581 77.2656 46.9758 77.2663 46.9931Z" fill="black"/>
<path d="M76.7022 40.0371C76.6907 40.049 76.6764 40.0554 76.6621 40.0619C76.6244 40.2057 76.5938 40.3502 76.5717 40.4944C76.6665 40.2883 76.7706 40.0867 76.8807 39.8892C76.8212 39.93 76.7614 39.9765 76.7022 40.0371Z" fill="#263238"/>
<path d="M79.1512 37.587C79.0645 37.5234 78.9935 37.4456 78.9411 37.3494C78.0313 37.5503 77.1915 38.5407 76.7852 39.6671C76.8946 39.5974 77.0017 39.5481 77.101 39.5182C77.6352 38.6757 78.3203 37.9692 79.1512 37.587Z" fill="#263238"/>
<path d="M77.2595 46.9398C77.2605 46.9401 77.2615 46.9401 77.2625 46.9408C77.9449 47.1852 78.8745 47.1434 80.0791 46.7232C80.1318 46.7048 80.1804 46.6922 80.2345 46.6722C81.0042 46.3876 81.571 45.9133 82.0457 45.2649C81.9892 45.2707 81.9331 45.2761 81.8787 45.2778C81.0246 45.3016 81.1066 44.624 81.5462 43.9257C81.6815 43.7108 81.8474 43.4646 82.0368 43.2443C81.4908 42.5147 81.3344 41.3284 82.1354 40.5012C83.3479 39.2483 82.8657 38.2011 81.9362 37.9655C81.1239 37.7598 79.7592 38.0321 79.1512 37.587C78.3203 37.9692 77.6352 38.6754 77.101 39.5182C77.3686 39.437 77.5764 39.4696 77.5906 39.472C77.6563 39.4839 77.6977 39.5468 77.6835 39.6131C77.6692 39.6794 77.6042 39.7239 77.5383 39.7131C77.523 39.7103 77.2105 39.6648 76.8811 39.8892C76.7706 40.0867 76.6669 40.288 76.572 40.4944C76.1055 41.5089 75.8257 42.6017 75.7465 43.5163C75.6506 44.6233 75.8192 45.5818 76.302 46.2288C76.3211 46.254 76.3367 46.2829 76.3564 46.307C76.588 46.5913 76.8885 46.8061 77.2595 46.9398ZM78.1914 41.1482L77.6977 42.8972C77.6977 42.8972 77.1167 43.1569 76.5526 42.6306C77.0789 41.7058 78.1914 41.1482 78.1914 41.1482ZM79.648 41.1261C79.7768 41.1635 79.8282 41.3563 79.7626 41.5569C79.6969 41.7575 79.5388 41.8897 79.4096 41.8523C79.2808 41.8149 79.2294 41.6222 79.2951 41.4216C79.361 41.2213 79.5191 41.0887 79.648 41.1261ZM79.2383 43.3415C79.1319 43.4238 79.0258 43.4915 78.9207 43.5476C78.2026 43.9297 77.5546 43.7489 77.5233 43.74C77.488 43.7298 77.4686 43.6945 77.4798 43.6615C77.491 43.6282 77.5288 43.6098 77.5641 43.62C77.5723 43.6224 78.3774 43.8464 79.1533 43.2453C79.1829 43.2229 79.2243 43.227 79.2475 43.2535C79.2713 43.2797 79.2668 43.3194 79.2383 43.3415ZM80.2437 41.7962C80.2437 41.7962 80.7295 41.7459 80.9832 42.0638C80.5476 42.0101 80.2437 41.7962 80.2437 41.7962ZM80.2593 41.5858C80.2593 41.5858 80.7744 41.4219 81.1338 41.664C80.6459 41.717 80.2593 41.5858 80.2593 41.5858ZM80.8992 40.1789C80.9152 40.2438 80.8747 40.3118 80.8091 40.3305C80.7877 40.3366 80.7666 40.337 80.7472 40.3322C80.7061 40.3223 80.6724 40.2911 80.6615 40.2469C80.535 39.727 80.124 39.589 80.1066 39.5832C80.0434 39.5631 80.0104 39.4948 80.0329 39.4302C80.0553 39.3656 80.125 39.3289 80.1889 39.3486C80.2117 39.3561 80.7411 39.5274 80.8992 40.1789ZM77.0075 40.7637C77.0732 40.5631 77.2313 40.4308 77.3601 40.4682C77.489 40.5056 77.5403 40.6984 77.4747 40.899C77.4091 41.0996 77.251 41.2318 77.1221 41.1944C76.9929 41.1574 76.9416 40.9643 77.0075 40.7637Z" fill="#FFC3BD"/>
<path d="M79.1512 37.587C79.7592 38.0321 81.1243 37.7597 81.9362 37.9654C82.8654 38.2007 83.3479 39.2483 82.1354 40.5012C81.3347 41.3284 81.4908 42.5146 82.0368 43.2443C82.402 42.8203 82.8559 42.4959 83.3557 42.6993C83.7249 42.8495 83.9242 43.1494 83.966 43.4843C85.1295 42.7248 86.2933 41.2305 85.1536 40.6494C85.0305 40.6263 84.8894 40.5882 84.7221 40.5287C84.902 40.5695 85.0533 40.5658 85.1866 40.5423C86.1767 39.6525 84.8643 38.0113 83.7069 37.3735C84.2863 37.2181 83.9582 36.7697 83.9582 36.7697C83.9582 36.7697 84.0608 37.329 82.5468 36.5354C81.0328 35.7418 78.5239 36.5711 78.9384 37.346C78.9391 37.3473 78.9401 37.3483 78.9408 37.3494C78.9931 37.4456 79.0645 37.5238 79.1512 37.587Z" fill="#263238"/>
<path d="M84.7225 40.5291C84.8895 40.5886 85.0309 40.6266 85.154 40.6498C86.0825 40.8252 85.854 40.0762 85.854 40.0762C85.854 40.0762 85.6579 40.4593 85.187 40.5426C85.0537 40.5661 84.9024 40.5699 84.7225 40.5291Z" fill="#263238"/>
<path d="M79.1536 43.2446C78.3777 43.8457 77.5726 43.6217 77.5644 43.6193C77.5291 43.6087 77.4913 43.6274 77.4801 43.6608C77.4689 43.6941 77.4883 43.7291 77.5236 43.7393C77.5546 43.7481 78.203 43.929 78.921 43.5469C79.0261 43.4911 79.1325 43.4231 79.2386 43.3408C79.2675 43.3187 79.2716 43.2789 79.2481 43.2521C79.2246 43.2262 79.1832 43.2222 79.1536 43.2446Z" fill="#263238"/>
<path d="M80.2593 41.5857C80.2593 41.5857 80.6459 41.717 81.1338 41.6639C80.7744 41.4218 80.2593 41.5857 80.2593 41.5857Z" fill="#FFC3BD"/>
<path opacity="0.2" d="M80.2593 41.5857C80.2593 41.5857 80.6459 41.717 81.1338 41.6639C80.7744 41.4218 80.2593 41.5857 80.2593 41.5857Z" fill="black"/>
<path d="M80.2437 41.7962C80.2437 41.7962 80.5476 42.0101 80.9832 42.0638C80.7295 41.7459 80.2437 41.7962 80.2437 41.7962Z" fill="#FFC3BD"/>
<path opacity="0.2" d="M80.2437 41.7962C80.2437 41.7962 80.5476 42.0101 80.9832 42.0638C80.7295 41.7459 80.2437 41.7962 80.2437 41.7962Z" fill="black"/>
<path d="M83.356 42.6992C82.8559 42.4959 82.402 42.8199 82.0371 43.2443C81.8478 43.4642 81.6818 43.7107 81.5465 43.9256C81.1069 44.624 81.025 45.3016 81.879 45.2778C81.9334 45.2761 81.9895 45.2707 82.046 45.2649C82.065 45.2628 82.0834 45.2622 82.1028 45.2598C82.1473 45.254 82.1925 45.2448 82.2377 45.2363C82.2275 45.1037 82.285 44.8746 82.4013 44.6284C82.421 44.5869 82.4414 44.5468 82.4621 44.5084C82.3255 44.4084 82.2843 44.1942 82.3816 43.9882C82.4904 43.7573 82.7246 43.6329 82.9045 43.7101C83.0843 43.7872 83.1418 44.0371 83.033 44.268C83.0024 44.3329 82.9606 44.3867 82.914 44.4326C82.8861 44.5407 82.8419 44.6638 82.7814 44.7916C82.7144 44.9334 82.6389 45.0571 82.5655 45.1534C82.9358 45.0313 83.3036 44.8185 83.6032 44.5053C83.8861 44.2099 84.0095 43.8287 83.9663 43.4846C83.9245 43.1494 83.7252 42.8495 83.356 42.6992Z" fill="#FFC3BD"/>
<path d="M82.8927 44.0715C82.9596 44.1004 82.963 44.2422 82.9141 44.4326C82.9607 44.3867 83.0025 44.333 83.0331 44.2681C83.1419 44.0372 83.0844 43.7873 82.9046 43.7101C82.7247 43.633 82.4904 43.7574 82.3816 43.9882C82.2844 44.1943 82.3255 44.4085 82.4622 44.5084C82.6179 44.2211 82.7998 44.0318 82.8927 44.0715Z" fill="white"/>
<path d="M82.9137 44.4326C82.963 44.2422 82.9596 44.1001 82.8923 44.0715C82.7995 44.0318 82.6176 44.2215 82.4615 44.5088C82.4408 44.5472 82.42 44.587 82.4007 44.6288C82.2844 44.875 82.2269 45.1038 82.2371 45.2367C82.2398 45.2714 82.246 45.3013 82.2585 45.321C82.2902 45.2537 82.3218 45.1881 82.3534 45.117C82.3629 45.0953 82.3884 45.0861 82.4095 45.0953C82.4309 45.1048 82.4404 45.13 82.4309 45.1514C82.4 45.2207 82.369 45.285 82.3384 45.3506C82.4 45.3363 82.4809 45.2639 82.5652 45.1534C82.6383 45.0575 82.7141 44.9338 82.7811 44.7917C82.8416 44.6638 82.8862 44.5404 82.9137 44.4326Z" fill="white"/>
<path d="M81.2613 49.5138C80.9587 47.9349 81.316 47.275 81.8417 46.3134C81.9036 46.2002 81.9692 46.0792 82.0355 45.954C82.1337 45.7694 82.2354 45.5692 82.3384 45.3502C82.3694 45.2846 82.4 45.2203 82.4309 45.151C82.4404 45.1295 82.4306 45.1044 82.4095 45.0949C82.3881 45.0854 82.3629 45.0949 82.3534 45.1166C82.3218 45.1877 82.2901 45.2533 82.2585 45.3206C82.1885 45.4696 82.1184 45.6127 82.0501 45.7453C81.9518 45.9353 81.8566 46.1098 81.7669 46.2733C81.228 47.259 80.8621 47.9318 81.1828 49.5628C81.2603 49.9562 81.3762 50.404 81.5408 50.9272C81.554 50.9704 81.5632 51.0095 81.5761 51.052H81.6642C81.6489 51.001 81.6377 50.9534 81.6214 50.9017C81.4537 50.3659 81.3375 49.912 81.2613 49.5138Z" fill="white"/>
<path d="M79.4099 41.8527C79.5391 41.8901 79.6969 41.7578 79.7629 41.5572C79.8285 41.3566 79.7771 41.1638 79.6483 41.1264C79.5194 41.089 79.3613 41.2213 79.2954 41.4219C79.2294 41.6225 79.2807 41.8153 79.4099 41.8527Z" fill="#263238"/>
<path d="M77.1221 41.1947C77.251 41.2321 77.4091 41.0999 77.4747 40.8993C77.5403 40.6987 77.489 40.5059 77.3601 40.4685C77.2312 40.4311 77.0731 40.5633 77.0075 40.7639C76.9416 40.9642 76.9929 41.1573 77.1221 41.1947Z" fill="#263238"/>
<path d="M77.6977 42.8972L78.1914 41.1482C78.1914 41.1482 77.0789 41.7058 76.5526 42.6306C77.1167 43.1569 77.6977 42.8972 77.6977 42.8972Z" fill="#ED847E"/>
<path d="M80.0335 39.4305C80.0111 39.4951 80.0441 39.5634 80.1073 39.5835C80.1246 39.5893 80.5357 39.727 80.6622 40.2472C80.6731 40.2914 80.7067 40.3227 80.7479 40.3325C80.7676 40.3373 80.7887 40.3369 80.8097 40.3308C80.8754 40.3121 80.9155 40.2441 80.8998 40.1792C80.7414 39.5277 80.2124 39.3564 80.1899 39.3492C80.1257 39.3292 80.056 39.3659 80.0335 39.4305Z" fill="#263238"/>
<path d="M76.8811 39.8895C77.2106 39.6651 77.523 39.7107 77.5383 39.7134C77.6039 39.7246 77.6692 39.6797 77.6835 39.6134C77.6978 39.5471 77.6566 39.4839 77.5907 39.4723C77.5764 39.47 77.3687 39.4377 77.1011 39.5186C77.0018 39.5488 76.8947 39.5978 76.7852 39.6675C76.7006 39.7212 76.6149 39.7841 76.5312 39.8698C76.483 39.9191 76.4819 39.9966 76.5292 40.0429C76.5469 40.0599 76.5683 40.0704 76.5911 40.0741C76.6149 40.0782 76.6394 40.0724 76.6621 40.0619C76.6764 40.0554 76.6907 40.049 76.7023 40.0371C76.7614 39.9766 76.8213 39.93 76.8811 39.8895Z" fill="#263238"/>
<path d="M97.0366 46.6449C97.0213 46.5351 96.9989 46.4246 96.973 46.3137C96.9615 46.2644 96.9482 46.2155 96.935 46.1662C96.9183 46.1036 96.9003 46.041 96.8812 45.9785C96.1196 45.9567 95.4284 45.6674 94.9262 45.172C95.0381 46.3297 94.4642 47.2049 93.5482 47.1566C93.8937 47.9481 94.9174 48.4346 96.6279 48.2017C97.0519 47.7672 97.1209 47.2151 97.0366 46.6449Z" fill="#263238"/>
<path d="M94.1204 42.8454C94.202 41.9046 94.5029 40.7636 95.0065 39.7263C94.9364 39.6396 94.9051 39.528 94.9051 39.528L95.0557 39.6226C95.2404 39.255 95.4515 38.9045 95.6875 38.5805C95.545 38.5961 95.3733 38.6454 95.1928 38.7753C95.1649 38.7953 95.1323 38.8021 95.102 38.797C95.0734 38.7923 95.0473 38.7766 95.0299 38.7515C94.9939 38.6995 95.0085 38.626 95.0622 38.5873C95.3733 38.3639 95.6678 38.3302 95.8687 38.3421C96.1053 38.0484 96.3637 37.7835 96.6456 37.5594C96.5031 37.5571 96.3682 37.5832 96.2407 37.6485C98.0923 35.9492 100.661 36.2321 102.502 38.2884C102.46 38.3214 102.418 38.3489 102.376 38.3792C103.521 39.0643 102.335 46.1495 100.448 46.4419C100.094 46.497 99.762 46.4644 99.4564 46.3763C99.5427 47.0006 99.7114 47.5616 100.001 47.9532C100.451 47.6646 100.829 47.2668 100.98 46.7942C101.698 47.2171 103.039 47.2474 103.898 45.8578C102.867 46.2203 101.636 45.3883 102.629 43.8338C104.109 41.5167 104.149 39.0004 102.933 38.0035C102.933 38.0035 103.357 35.548 100.247 35.4735C97.7203 35.413 95.9581 36.9464 95.9581 36.9464C94.0929 36.7084 93.3955 39.9677 93.5757 42.1974C93.7161 43.9361 92.9478 43.8117 92.7319 43.6077C92.6261 44.6705 93.4703 44.9857 94.5675 44.728C94.2336 44.2173 94.0568 43.5781 94.1204 42.8454Z" fill="#263238"/>
<path d="M101.539 48.1994C101.135 48.2038 100.708 48.2178 100.271 48.2456C100.271 48.2456 99.8035 48.4595 99.1201 48.8777C98.5346 49.3656 97.6843 50.1207 96.8203 51.0516H103.946C103.949 51.0282 103.952 51.0061 103.955 50.9826C104.176 49.4778 103.051 48.1821 101.539 48.1994Z" fill="#3F8AEF"/>
<path opacity="0.3" d="M101.539 48.1994C101.135 48.2038 100.708 48.2178 100.271 48.2456C100.271 48.2456 99.8035 48.4595 99.1201 48.8777C98.5346 49.3656 97.6843 50.1207 96.8203 51.0516H103.946C103.949 51.0282 103.952 51.0061 103.955 50.9826C104.176 49.4778 103.051 48.1821 101.539 48.1994Z" fill="black"/>
<path d="M95.7024 48.7552C95.2118 48.8549 94.7056 48.9739 94.2231 49.0963C93.1497 49.3679 92.28 50.1118 91.8156 51.0516H94.3486C94.4329 50.3026 94.7413 49.7613 95.0575 49.3917C95.3618 48.9423 95.7024 48.7552 95.7024 48.7552Z" fill="#3F8AEF"/>
<path opacity="0.3" d="M95.7024 48.7552C95.2118 48.8549 94.7056 48.9739 94.2231 49.0963C93.1497 49.3679 92.28 50.1118 91.8156 51.0516H94.3486C94.4329 50.3026 94.7413 49.7613 95.0575 49.3917C95.3618 48.9423 95.7024 48.7552 95.7024 48.7552Z" fill="black"/>
<path d="M95.0578 49.3918C94.7412 49.7614 94.4332 50.3024 94.3489 51.0517H94.5988C94.5944 50.2969 94.8113 49.756 95.0578 49.3918Z" fill="white"/>
<path d="M99.1201 48.8773C98.3523 49.3472 97.313 50.0751 96.3562 51.0513H96.8206C97.6842 50.1204 98.5346 49.3652 99.1201 48.8773Z" fill="white"/>
<path d="M96.973 46.3138C96.9615 46.2645 96.9482 46.2156 96.9349 46.1663C96.9482 46.2156 96.9615 46.2649 96.973 46.3138Z" fill="#FFB573"/>
<path d="M100.271 48.2457C100.169 48.1651 100.082 48.0641 100 47.9536C99.7114 47.5619 99.5424 47.0009 99.456 46.3767C99.0055 46.2471 98.6138 45.9952 98.2891 45.7161C98.2769 45.7212 98.2647 45.7246 98.2524 45.7293C97.9563 46.1703 97.4561 46.5572 97.04 46.6643C97.0393 46.6579 97.0373 46.6514 97.0362 46.6449C97.1206 47.2151 97.0516 47.7673 96.6276 48.2025C96.4158 48.4201 96.1169 48.6088 95.7024 48.7553C95.7024 48.7553 95.3617 48.9427 95.0578 49.3918C94.8113 49.7563 94.5944 50.2969 94.5984 51.0517H96.3559C97.3127 50.0755 98.3524 49.3476 99.1198 48.8777C99.8032 48.4595 100.271 48.2457 100.271 48.2457Z" fill="#FFB573"/>
<path d="M96.8812 45.9789C96.9003 46.0411 96.9183 46.1037 96.9349 46.1666C96.9179 46.1037 96.9003 46.0414 96.8812 45.9789Z" fill="#263238"/>
<path opacity="0.2" d="M96.8812 45.9789C96.9003 46.0411 96.9183 46.1037 96.9349 46.1666C96.9179 46.1037 96.9003 46.0414 96.8812 45.9789Z" fill="black"/>
<path d="M97.0366 46.6449C97.0203 46.5351 96.9992 46.4246 96.973 46.3137C96.9989 46.4242 97.021 46.5351 97.0366 46.6449Z" fill="#263238"/>
<path opacity="0.2" d="M97.0366 46.6449C97.0203 46.5351 96.9992 46.4246 96.973 46.3137C96.9989 46.4242 97.021 46.5351 97.0366 46.6449Z" fill="black"/>
<path d="M96.8812 45.9788C96.9003 46.0411 96.9179 46.1036 96.9349 46.1665C96.9482 46.2158 96.9615 46.2644 96.973 46.3141C96.9992 46.4246 97.0203 46.5351 97.0366 46.6452C97.0373 46.6517 97.0393 46.6582 97.0403 46.6646C97.4565 46.5575 97.9566 46.1706 98.2528 45.7296C97.787 45.9136 97.3232 45.9914 96.8812 45.9788Z" fill="#FFB573"/>
<path opacity="0.2" d="M96.8812 45.9788C96.9003 46.0411 96.9179 46.1036 96.9349 46.1665C96.9482 46.2158 96.9615 46.2644 96.973 46.3141C96.9992 46.4246 97.0203 46.5351 97.0366 46.6452C97.0373 46.6517 97.0393 46.6582 97.0403 46.6646C97.4565 46.5575 97.9566 46.1706 98.2528 45.7296C97.787 45.9136 97.3232 45.9914 96.8812 45.9788Z" fill="black"/>
<path d="M96.8812 45.9789C97.3229 45.9914 97.787 45.9136 98.2524 45.7293C98.2647 45.7245 98.2769 45.7211 98.2892 45.716C97.636 45.154 97.2597 44.4835 97.2597 44.4835C97.2597 44.4835 98.2484 44.982 98.9049 43.8018C98.4629 42.8934 99.1643 41.6129 99.8423 41.3161C99.6832 40.9282 99.6985 39.7538 100.29 38.9868C98.8009 38.8266 97.567 37.5758 96.6449 37.5594C96.3631 37.7835 96.1047 38.0484 95.868 38.3421C96.0166 38.351 96.1155 38.3839 96.1247 38.3873C96.1842 38.4098 96.2121 38.4771 96.1866 38.538C96.1611 38.5988 96.0924 38.6298 96.0326 38.608C96.0214 38.6036 95.8833 38.559 95.6868 38.5805C95.4508 38.9045 95.2397 39.255 95.0551 39.6226L95.3182 39.7875C95.3155 39.7892 95.3132 39.7888 95.3104 39.7902C95.3992 39.8531 95.4325 40.0068 95.3791 40.173C95.3166 40.3658 95.1653 40.4947 95.0408 40.4603C94.9167 40.426 94.8664 40.242 94.9286 40.0489C94.9643 39.9381 95.0303 39.8534 95.103 39.8034C95.0653 39.7854 95.0323 39.7586 95.0058 39.7259C94.5026 40.7633 94.2013 41.9043 94.1197 42.8451C94.0562 43.5778 94.233 44.217 94.5665 44.7273C94.6719 44.8888 94.7906 45.0388 94.9259 45.172C95.4281 45.6678 96.1196 45.9574 96.8812 45.9789ZM98.0794 39.239C98.1015 39.2424 98.6322 39.3291 98.8709 39.9204C98.8947 39.9792 98.8648 40.0489 98.8046 40.0761C98.7754 40.089 98.7444 40.0897 98.7176 40.0802C98.6887 40.07 98.6645 40.0486 98.6523 40.018C98.4598 39.5416 98.0372 39.4723 98.0321 39.4716C97.9696 39.4614 97.9277 39.4022 97.9407 39.338C97.9536 39.2737 98.0155 39.2295 98.0794 39.239ZM97.2549 40.1377L97.6687 40.3967C97.6659 40.3984 97.6636 40.3981 97.6608 40.3995C97.7496 40.4624 97.7829 40.616 97.7292 40.782C97.667 40.9747 97.5153 41.1036 97.3912 41.0693C97.2668 41.0349 97.2168 40.851 97.279 40.6582C97.3147 40.5474 97.381 40.4627 97.4534 40.4127C97.3151 40.3468 97.2549 40.1377 97.2549 40.1377ZM94.967 41.72C95.4519 41.4171 96.0431 40.6752 96.0431 40.6752L95.6035 42.0355C95.6035 42.0355 95.1411 42.0267 94.967 41.72ZM95.8962 43.1133C95.8609 43.1048 95.8405 43.0688 95.8507 43.0328C95.8609 42.9971 95.8973 42.9746 95.9336 42.9831C96.8931 43.2123 97.5378 42.6394 97.5439 42.6336C97.5721 42.6078 97.6143 42.6088 97.6384 42.6356C97.6625 42.6622 97.6591 42.7047 97.6313 42.7302C97.6064 42.7526 97.088 43.2143 96.272 43.1688C96.1533 43.162 96.0278 43.1446 95.8962 43.1133Z" fill="#FFB573"/>
<path d="M97.6387 42.6357C97.6146 42.6088 97.5724 42.6078 97.5442 42.6336C97.5381 42.6394 96.8935 43.2123 95.934 42.9831C95.8976 42.975 95.8612 42.9971 95.851 43.0328C95.8408 43.0688 95.8612 43.1049 95.8966 43.1134C96.0282 43.1446 96.1536 43.162 96.2726 43.1688C97.0883 43.2143 97.6068 42.7526 97.6319 42.7302C97.6595 42.7047 97.6629 42.6622 97.6387 42.6357Z" fill="#263238"/>
<path d="M97.2791 40.6585C97.2168 40.8513 97.2668 41.0356 97.3913 41.0696C97.5157 41.1039 97.667 40.9751 97.7292 40.7823C97.7829 40.616 97.7493 40.4627 97.6609 40.3998C97.5772 40.4443 97.5096 40.4399 97.4535 40.4134C97.3811 40.4627 97.3151 40.5477 97.2791 40.6585Z" fill="#263238"/>
<path d="M95.1034 39.8038C95.031 39.8534 94.965 39.9384 94.929 40.0493C94.8664 40.242 94.9167 40.4263 95.0412 40.4607C95.1656 40.495 95.3169 40.3661 95.3795 40.1734C95.4332 40.0071 95.3999 39.8538 95.3108 39.7905C95.2275 39.8347 95.1595 39.8303 95.1034 39.8038Z" fill="#263238"/>
<path d="M95.0065 39.7263C95.0327 39.7589 95.0656 39.7855 95.1037 39.8038C95.1598 39.8307 95.2275 39.8348 95.3111 39.7902C95.3138 39.7889 95.3162 39.7889 95.3189 39.7875L95.0558 39.6226L94.9052 39.5281C94.9052 39.5281 94.9364 39.6396 95.0065 39.7263Z" fill="#263238"/>
<path d="M94.967 41.72C95.1415 42.0267 95.6032 42.0355 95.6032 42.0355L96.0428 40.6752C96.0428 40.6752 95.4519 41.4171 94.967 41.72Z" fill="#ED893E"/>
<path d="M100.448 46.4419C102.335 46.1495 103.521 39.0643 102.376 38.3792C101.636 38.9157 100.938 39.0564 100.29 38.9867C99.6988 39.7538 99.6835 40.9281 99.8427 41.3161C99.1647 41.6126 98.4633 42.893 98.9053 43.8018C98.2487 44.9819 97.26 44.4835 97.26 44.4835C97.26 44.4835 97.6364 45.154 98.2895 45.716C98.6142 45.9952 99.0056 46.2471 99.4564 46.3766C99.7621 46.4643 100.094 46.497 100.448 46.4419Z" fill="#263238"/>
<path d="M102.376 38.3795C102.418 38.3492 102.46 38.3217 102.502 38.2887C100.661 36.2324 98.0922 35.9495 96.2406 37.6488C96.3678 37.5839 96.5031 37.5574 96.6455 37.5597C97.5676 37.5761 98.8015 38.8269 100.291 38.9871C100.938 39.0564 101.636 38.916 102.376 38.3795Z" fill="#263238"/>
<path d="M98.0321 39.4713C98.0372 39.472 98.4595 39.5413 98.6523 40.0177C98.6649 40.0483 98.689 40.0697 98.7176 40.0799C98.7448 40.0894 98.7757 40.0887 98.8046 40.0758C98.8648 40.0489 98.8947 39.9792 98.8709 39.9201C98.6319 39.3288 98.1015 39.2425 98.0794 39.2387C98.0155 39.2292 97.9536 39.2731 97.9407 39.3373C97.9274 39.4019 97.9696 39.4614 98.0321 39.4713Z" fill="#263238"/>
<path d="M95.0615 38.5873C95.0078 38.6261 94.9931 38.6998 95.0292 38.7515C95.0465 38.7767 95.073 38.792 95.1013 38.7971C95.1315 38.8022 95.1642 38.7954 95.192 38.7753C95.3726 38.6454 95.5446 38.5961 95.6868 38.5805C95.8829 38.5591 96.021 38.6036 96.0325 38.608C96.0924 38.6298 96.1611 38.5989 96.1866 38.538C96.2121 38.4771 96.1842 38.4098 96.1247 38.3874C96.1155 38.384 96.0165 38.351 95.868 38.3422C95.6674 38.3303 95.3726 38.3639 95.0615 38.5873Z" fill="#263238"/>
<path d="M97.6608 40.3999C97.6636 40.3985 97.6659 40.3985 97.6687 40.3971L97.2549 40.1381C97.2549 40.1381 97.3151 40.3472 97.4534 40.4135C97.5095 40.44 97.5775 40.4441 97.6608 40.3999Z" fill="#263238"/>
<path d="M111.772 42.0298C111.753 42.0244 111.736 42.0132 111.724 41.9968C111.69 41.9526 111.701 41.887 111.747 41.85C111.792 41.8146 111.836 41.7874 111.879 41.7609C112.004 41.41 112.16 41.0761 112.345 40.7671C112.131 40.6484 111.953 40.4713 111.816 40.2537C111.538 40.5746 111.463 41.0462 111.568 41.582C111.642 41.9615 111.602 42.4324 111.587 42.8625C111.639 42.5823 111.708 42.3039 111.792 42.0308C111.785 42.0298 111.778 42.0315 111.772 42.0298Z" fill="#263238"/>
<path d="M119.481 49.6481C118.971 49.6342 118.445 49.6345 117.911 49.6454C117.904 50.1241 117.727 50.5991 117.419 51.0513H121.36C120.955 50.268 120.295 49.6702 119.481 49.6481Z" fill="#3F8AEF"/>
<path d="M112.417 50.199C111.612 50.3635 110.89 50.6508 110.278 51.0514H111.808C111.986 50.6729 112.212 50.3547 112.417 50.199Z" fill="#3F8AEF"/>
<path d="M117.912 49.6281C117.485 49.3575 117.248 49.4687 117.248 49.4687C117.248 49.4687 117.244 49.4738 117.242 49.4755C117.384 49.7713 117.326 50.1374 117.08 50.3853C116.853 50.6145 116.602 50.8399 116.327 51.0517H117.419C117.727 50.5995 117.904 50.1245 117.911 49.6458C117.911 49.6397 117.912 49.6339 117.912 49.6281Z" fill="white"/>
<path d="M112.977 50.1361C113.103 50.077 113.213 50.0113 113.315 49.943C113.281 49.9447 112.838 49.9695 112.421 50.1959C112.42 50.197 112.419 50.1983 112.417 50.1994C112.212 50.3551 111.986 50.673 111.808 51.0517H112.266C112.274 51.0075 112.285 50.9633 112.297 50.9195C112.393 50.5757 112.652 50.2891 112.977 50.1361Z" fill="white"/>
<path d="M114.009 47.6388C114.012 47.6504 114.014 47.6619 114.016 47.6738C114.014 47.6619 114.013 47.6504 114.01 47.6388C114.01 47.6388 114.009 47.6388 114.009 47.6388Z" fill="#FF8B7B"/>
<path d="M117.243 49.4751C117.232 49.452 117.222 49.4286 117.209 49.4065C116.778 48.7023 116.65 47.6011 116.659 46.5209C116.519 46.6582 116.359 46.783 116.168 46.8925C115.814 47.0965 115.479 47.2543 115.161 47.3736C114.84 47.7031 114.431 47.9618 114.082 48.0434C114.082 48.0434 114.082 48.0427 114.082 48.042C114.173 48.769 114.031 49.4615 113.315 49.9423C113.213 50.0106 113.103 50.0763 112.977 50.1354C112.652 50.2884 112.393 50.5747 112.297 50.9184C112.285 50.9626 112.275 51.0068 112.266 51.0507H116.327C116.603 50.8389 116.854 50.6138 117.081 50.3843C117.326 50.1375 117.384 49.7709 117.243 49.4751Z" fill="#FF8B7B"/>
<path opacity="0.2" d="M114.081 48.0424C114.066 47.92 114.043 47.7969 114.017 47.6735C114.043 47.7969 114.067 47.9203 114.081 48.0424Z" fill="black"/>
<path d="M115.161 47.3739C114.745 47.5303 114.361 47.6153 114.01 47.6388C114.013 47.6507 114.014 47.6622 114.016 47.6738C114.043 47.7972 114.066 47.9203 114.081 48.0427C114.081 48.0427 114.081 48.0434 114.081 48.044C114.431 47.9621 114.839 47.703 115.161 47.3739Z" fill="#FF8B7B"/>
<path opacity="0.2" d="M115.161 47.3739C114.745 47.5303 114.361 47.6153 114.01 47.6388C114.013 47.6507 114.014 47.6622 114.016 47.6738C114.043 47.7972 114.066 47.9203 114.081 48.0427C114.081 48.0427 114.081 48.0434 114.081 48.044C114.431 47.9621 114.839 47.703 115.161 47.3739Z" fill="black"/>
<path d="M115.161 47.3739C115.479 47.2546 115.813 47.0968 116.168 46.8928C116.358 46.7834 116.519 46.6582 116.659 46.5212C116.986 46.2006 117.189 45.8055 117.331 45.3411C117.259 45.3683 117.188 45.3989 117.119 45.4159C117.012 45.4421 116.923 45.44 116.842 45.4264C116.05 45.8613 114.949 46.1486 114.083 46.1761C114.009 46.3298 113.81 46.4233 113.595 46.3849C113.353 46.3417 113.191 46.1533 113.234 45.964C113.277 45.7746 113.509 45.6559 113.751 45.6991C113.944 45.7334 114.081 45.8606 114.109 46.0065C114.91 45.9765 115.905 45.7249 116.647 45.3435C116.413 45.1616 116.39 44.7376 116.594 44.3041C116.599 44.2949 116.604 44.285 116.608 44.2759C115.866 43.69 116.472 42.771 116.904 42.3797C117.403 41.9268 116.508 41.7065 117.057 40.7429C115.036 41.5355 115.122 40.6933 113.212 40.9265C112.886 40.9663 112.593 40.9048 112.345 40.7667C112.16 41.0758 112.004 41.41 111.879 41.7605C112.294 41.5059 112.663 41.6123 112.681 41.6171C112.734 41.6337 112.761 41.6915 112.741 41.7466C112.72 41.8017 112.66 41.8333 112.607 41.8173C112.592 41.8129 112.24 41.7126 111.869 42.0094C111.846 42.0281 111.818 42.0329 111.792 42.0308C111.708 42.3042 111.639 42.5823 111.587 42.8625C111.429 43.7081 111.408 44.5591 111.501 45.2544C111.704 46.7847 112.579 47.734 114.009 47.6391H114.011C114.361 47.6153 114.745 47.53 115.161 47.3739ZM114.747 41.9683C114.767 41.969 115.243 41.9907 115.504 42.4837C115.53 42.533 115.51 42.5969 115.459 42.6269C115.442 42.6364 115.424 42.6415 115.407 42.6418C115.371 42.6428 115.336 42.6248 115.319 42.5915C115.111 42.1981 114.74 42.177 114.724 42.1764C114.667 42.1743 114.626 42.126 114.632 42.0689C114.638 42.0115 114.689 41.9662 114.747 41.9683ZM114.041 43.0882C114.072 42.9118 114.19 42.7785 114.304 42.7907C114.418 42.8026 114.485 42.9553 114.453 43.1318C114.422 43.3082 114.305 43.4415 114.191 43.4296C114.077 43.4174 114.009 43.2647 114.041 43.0882ZM111.898 42.8156C111.929 42.6391 112.047 42.5058 112.161 42.5177C112.275 42.5296 112.342 42.6826 112.311 42.8587C112.28 43.0349 112.162 43.1685 112.048 43.1562C111.934 43.1447 111.867 42.992 111.898 42.8156ZM111.702 44.1127C112.195 43.5999 113.054 42.9271 113.054 42.9271L112.531 44.4972C112.531 44.4972 111.885 44.4846 111.702 44.1127ZM112.818 45.2224C112.791 45.216 112.776 45.1877 112.784 45.1599C112.792 45.132 112.821 45.1146 112.849 45.1208C113.587 45.2969 114.097 44.8494 114.103 44.845C114.125 44.8253 114.157 44.826 114.176 44.8467C114.194 44.8675 114.191 44.9004 114.169 44.9202C114.148 44.9385 113.711 45.3241 113.042 45.2598C112.97 45.253 112.895 45.2411 112.818 45.2224Z" fill="#FF8B7B"/>
<path d="M112.344 40.7667C112.592 40.9047 112.886 40.9663 113.211 40.9265C115.122 40.6933 115.036 41.5358 117.056 40.7429C116.508 41.7065 117.402 41.9271 116.903 42.3797C116.472 42.771 115.865 43.69 116.608 44.2758C116.885 43.704 117.535 42.9556 118.116 43.0807C118.382 43.1382 118.54 43.3269 118.6 43.5656C118.769 43.4687 118.937 43.3646 119.094 43.2514C120.155 42.4895 120.868 40.3947 119.302 40.0687C119.025 40.2516 118.606 40.3437 118.117 40.3417C118.456 40.2856 118.737 40.1051 118.941 39.8589C118.751 38.2527 117.702 39.1592 116.626 38.5156C115.839 38.045 115.985 37.3398 114.673 37.5037C114.168 37.567 113.818 36.925 114.925 36.4909C114.321 35.8041 111.595 36.8887 111.514 39.0351C111.496 39.5016 111.608 39.9242 111.815 40.2533C111.952 40.4709 112.131 40.6477 112.344 40.7667Z" fill="#263238"/>
<path d="M118.117 40.3417C118.606 40.3438 119.025 40.2513 119.302 40.0687C119.731 39.7845 119.811 39.2796 119.243 38.5564C119.359 39.0341 119.228 39.5132 118.941 39.8593C118.737 40.1051 118.456 40.2856 118.117 40.3417Z" fill="#263238"/>
<path d="M117.514 44.9409C117.339 45.1164 117.108 45.2796 116.841 45.4261C116.923 45.4397 117.012 45.4417 117.119 45.4156C117.187 45.3989 117.259 45.368 117.33 45.3408C117.606 45.2354 117.89 45.0582 118.138 44.8032C117.945 44.9895 117.69 45.0518 117.514 44.9409Z" fill="#FF8B7B"/>
<path d="M118.116 43.0807C117.535 42.9556 116.885 43.704 116.608 44.2759C116.603 44.285 116.598 44.2949 116.594 44.3041C116.39 44.7376 116.413 45.1612 116.647 45.3435C116.95 45.1881 117.21 45.0109 117.399 44.8185C117.301 44.6488 117.327 44.3914 117.484 44.1711C117.682 43.8916 118.012 43.7805 118.221 43.9229C118.427 44.063 118.438 44.3955 118.249 44.6723C118.296 44.6172 118.347 44.5679 118.389 44.507C118.604 44.2014 118.671 43.8478 118.6 43.5656C118.54 43.3269 118.382 43.1382 118.116 43.0807Z" fill="#FF8B7B"/>
<path d="M118.221 43.9229C118.012 43.7804 117.682 43.8916 117.484 44.1711C117.327 44.3911 117.301 44.6485 117.399 44.8185C117.449 44.7671 117.494 44.7151 117.534 44.6617C117.562 44.624 117.615 44.6161 117.653 44.6437C117.691 44.6716 117.699 44.7246 117.671 44.7627C117.626 44.8235 117.572 44.8827 117.514 44.9409C117.691 45.0517 117.946 44.9895 118.139 44.8032C118.175 44.7681 118.21 44.7304 118.24 44.6869C118.244 44.6821 118.246 44.677 118.249 44.6723C118.438 44.3955 118.427 44.063 118.221 43.9229Z" fill="#263238"/>
<path d="M113.85 46.1784C113.803 46.1771 113.766 46.138 113.767 46.0914C113.768 46.0445 113.804 46.0152 113.854 46.0084C113.936 46.0105 114.021 46.0094 114.108 46.006C114.08 45.8602 113.944 45.733 113.751 45.6987C113.509 45.6555 113.277 45.7742 113.234 45.9635C113.19 46.1529 113.352 46.3413 113.594 46.3845C113.81 46.4229 114.009 46.3294 114.082 46.1757C114.037 46.1771 113.991 46.1795 113.948 46.1795C113.915 46.1798 113.882 46.1794 113.85 46.1784Z" fill="#263238"/>
<path d="M117.514 44.9409C117.572 44.8828 117.626 44.8236 117.671 44.7628C117.699 44.725 117.69 44.6716 117.653 44.6438C117.615 44.6159 117.561 44.624 117.534 44.6618C117.494 44.7152 117.449 44.7672 117.398 44.8185C117.21 45.011 116.949 45.1881 116.647 45.3435C115.904 45.725 114.909 45.9766 114.108 46.0065C114.021 46.0099 113.936 46.0109 113.854 46.0089C113.804 46.0157 113.768 46.0449 113.767 46.0918C113.766 46.1387 113.802 46.1775 113.85 46.1789C113.882 46.1796 113.915 46.1799 113.948 46.1799C113.992 46.1799 114.038 46.1775 114.083 46.1761C114.949 46.1486 116.05 45.8613 116.842 45.4264C117.108 45.2796 117.339 45.1164 117.514 44.9409Z" fill="#263238"/>
<path d="M114.19 43.4293C114.304 43.4412 114.422 43.3079 114.453 43.1314C114.484 42.955 114.417 42.8023 114.304 42.7904C114.19 42.7785 114.072 42.9118 114.041 43.0879C114.009 43.2647 114.077 43.4174 114.19 43.4293Z" fill="#263238"/>
<path d="M112.048 43.1566C112.162 43.1685 112.279 43.0352 112.31 42.8591C112.342 42.683 112.275 42.53 112.161 42.5181C112.047 42.5062 111.929 42.6395 111.898 42.8159C111.867 42.992 111.934 43.1447 112.048 43.1566Z" fill="#263238"/>
<path d="M113.054 42.9268C113.054 42.9268 112.195 43.5996 111.702 44.1123C111.885 44.4846 112.532 44.4969 112.532 44.4969L113.054 42.9268Z" fill="#FF5652"/>
<path d="M114.169 44.9205C114.191 44.9005 114.194 44.8678 114.176 44.8471C114.158 44.8264 114.125 44.8257 114.103 44.8454C114.098 44.8498 113.588 45.2973 112.849 45.1211C112.821 45.1147 112.793 45.132 112.784 45.1602C112.776 45.1885 112.791 45.2163 112.818 45.2228C112.896 45.2411 112.97 45.2534 113.042 45.2602C113.712 45.3244 114.149 44.9389 114.169 44.9205Z" fill="#263238"/>
<path d="M114.724 42.1763C114.739 42.177 115.111 42.198 115.318 42.5914C115.336 42.6247 115.37 42.6428 115.407 42.6417C115.424 42.6414 115.442 42.6363 115.458 42.6268C115.51 42.5969 115.53 42.5329 115.504 42.4836C115.243 41.9906 114.766 41.9689 114.746 41.9682C114.689 41.9662 114.638 42.0114 114.632 42.0688C114.626 42.126 114.667 42.1742 114.724 42.1763Z" fill="#263238"/>
<path d="M111.724 41.9968C111.737 42.0131 111.753 42.024 111.772 42.0298C111.778 42.0318 111.785 42.0301 111.792 42.0308C111.818 42.0332 111.846 42.0281 111.869 42.0094C112.24 41.7122 112.592 41.8129 112.607 41.8173C112.66 41.8333 112.72 41.8016 112.74 41.7466C112.761 41.6915 112.734 41.6337 112.681 41.617C112.663 41.6119 112.294 41.5058 111.879 41.7605C111.835 41.7874 111.792 41.8142 111.747 41.8496C111.701 41.887 111.69 41.9526 111.724 41.9968Z" fill="#263238"/>
<path d="M78.0507 64.2702C78.0446 64.1597 78.0317 64.0482 78.0153 63.936C78.0143 63.9292 78.014 63.9228 78.0126 63.916C76.2871 64.1108 74.7326 62.9456 74.7241 61.0566C74.7204 60.2018 74.885 59.1665 75.2284 58.1812C75.2243 58.1717 75.2216 58.1652 75.2216 58.1652L75.2321 58.1706C75.4232 57.6249 75.6721 57.0983 75.976 56.623C75.7081 56.1956 75.8526 55.586 76.6353 54.753C76.673 54.3324 76.8019 53.9948 76.995 53.7319C76.7108 53.7653 76.4306 53.8265 76.161 53.9251C73.8303 54.7802 75.0475 58.1832 73.3352 59.6194C71.623 61.0555 70.9362 63.168 71.5917 64.8472C72.014 65.1797 72.6253 65.4306 73.3964 65.6044C73.2978 64.7234 73.526 63.5311 73.526 63.5311C73.526 63.5311 73.6368 65.0026 74.1444 65.7414C74.7075 65.825 75.3341 65.8767 76.0155 65.8954C76.045 65.5864 76.1079 65.3365 76.1079 65.3365C76.1079 65.3365 76.1566 65.6034 76.2939 65.9016C76.6241 65.9077 76.976 65.9158 77.3411 65.923C77.9429 65.5174 78.0905 64.9132 78.0507 64.2702Z" fill="#263238"/>
<path d="M82.2613 59.808C82.6662 60.0287 82.7407 60.5747 82.4456 60.998C82.1477 61.4247 81.6874 61.6845 81.2736 61.7658C81.2178 61.7766 81.1689 61.7763 81.1196 61.7766C80.955 62.0731 80.7629 62.3373 80.5269 62.5858C80.3947 63.766 80.4076 65.0658 80.8734 65.8254C81.8567 65.7264 82.8478 65.5445 83.7845 65.2219C85.118 62.983 83.3251 61.7794 83.0338 60.6308C82.6519 59.128 83.5523 58.583 83.7495 57.3152C83.88 56.476 83.3136 55.5893 82.1042 55.6308C82.1923 55.913 82.2446 56.2149 82.2579 56.5345C83.0511 56.7202 82.9906 58.3365 82.2613 59.808Z" fill="#263238"/>
<path d="M72.0792 67.8916H72.27C72.3992 67.625 72.5719 67.3853 72.7878 67.1929C72.5063 67.4234 72.271 67.6566 72.0792 67.8916Z" fill="#3F8AEF"/>
<path d="M72.9149 67.0872C72.8867 67.1089 72.8633 67.131 72.8361 67.1528C72.8908 67.1069 72.9496 67.0658 73.0095 67.0256C72.9778 67.0464 72.9472 67.0624 72.9149 67.0872Z" fill="#3F8AEF"/>
<path d="M76.5561 66.2637C75.5724 66.3806 74.5208 66.569 73.7171 66.7274C73.4542 66.7791 73.2193 66.8852 73.0095 67.0256C72.9497 67.0657 72.8909 67.1069 72.8361 67.1528C72.8201 67.1664 72.8035 67.179 72.7878 67.1929C72.5716 67.3853 72.3992 67.625 72.27 67.8916H74.6031C74.9836 66.6883 76.5561 66.2637 76.5561 66.2637Z" fill="#3F8AEF"/>
<path d="M83.4469 66.295C82.7757 66.2202 81.9679 66.1525 81.1145 66.1355C81.1145 66.1355 81.4901 66.6761 81.0029 67.8916H81.9893C81.9967 66.9386 82.3606 66.2365 83.4469 66.295Z" fill="#3F8AEF"/>
<path d="M76.5561 66.2637C76.5561 66.2637 74.9836 66.6883 74.6031 67.8912H76.5218C76.2331 67.0572 76.5561 66.2637 76.5561 66.2637Z" fill="white"/>
<path d="M81.1144 66.1355C81.1144 66.1355 80.1546 67.1184 78.8456 67.8916H81.0029C81.4904 66.6761 81.1144 66.1355 81.1144 66.1355Z" fill="white"/>
<path d="M78.0126 63.9163C78.0139 63.9231 78.0148 63.9296 78.0161 63.9364C78.0148 63.9296 78.0148 63.9231 78.0134 63.9163H78.0126Z" fill="#B55B52"/>
<path d="M81.1145 66.1355C81.0217 66.0478 80.9441 65.9407 80.8731 65.8251C80.4073 65.0659 80.3944 63.7657 80.5266 62.5856C80.3015 62.8226 80.0374 63.0459 79.711 63.2686C79.5678 63.3662 79.4226 63.4519 79.2761 63.5274C78.9446 63.9116 78.4492 64.2217 78.0521 64.29C78.0518 64.2835 78.0504 64.2767 78.0501 64.2703C78.0902 64.9132 77.9426 65.5174 77.3418 65.9227C77.1361 66.0617 76.8788 66.178 76.5554 66.2637C76.5554 66.2637 76.2324 67.0573 76.5211 67.8913H78.8453C80.1547 67.1184 81.1145 66.1355 81.1145 66.1355Z" fill="#B55B52"/>
<path d="M78.0507 64.2703C78.0436 64.1598 78.032 64.0482 78.0154 63.936C78.0317 64.0482 78.0446 64.1598 78.0507 64.2703Z" fill="#263238"/>
<path opacity="0.2" d="M78.0507 64.2703C78.0436 64.1598 78.032 64.0482 78.0154 63.936C78.0317 64.0482 78.0446 64.1598 78.0507 64.2703Z" fill="black"/>
<path d="M78.0154 63.9364C78.032 64.0483 78.0436 64.1598 78.0507 64.2706C78.0511 64.2771 78.0524 64.2839 78.0528 64.2903C78.4499 64.222 78.9453 63.9119 79.2768 63.5277C78.8586 63.7433 78.4312 63.8694 78.0137 63.9163C78.0144 63.9228 78.0144 63.9296 78.0154 63.9364Z" fill="#B55B52"/>
<path opacity="0.2" d="M78.0154 63.9364C78.032 64.0483 78.0436 64.1598 78.0507 64.2706C78.0511 64.2771 78.0524 64.2839 78.0528 64.2903C78.4499 64.222 78.9453 63.9119 79.2768 63.5277C78.8586 63.7433 78.4312 63.8694 78.0137 63.9163C78.0144 63.9228 78.0144 63.9296 78.0154 63.9364Z" fill="black"/>
<path d="M80.6602 60.7692C80.767 60.5217 80.9645 60.2341 81.2079 60.0212C80.546 59.4466 80.3046 58.3042 81.056 57.2696C78.9014 57.611 76.536 57.5161 75.9764 56.6229C75.6724 57.0982 75.4235 57.6249 75.2324 58.1706L75.6564 58.3858C75.6537 58.3875 75.6517 58.3875 75.6489 58.3892C75.7428 58.4436 75.7897 58.5925 75.7503 58.7615C75.7047 58.9577 75.565 59.0978 75.4378 59.0747C75.311 59.0515 75.245 58.8741 75.2902 58.6779C75.3164 58.5653 75.3749 58.4759 75.4429 58.4205C75.3225 58.3756 75.2484 58.2294 75.2277 58.1815C74.8839 59.1671 74.7197 60.2021 74.7235 61.0569C74.732 62.9459 76.2864 64.1111 78.0119 63.9163C78.4298 63.869 78.8575 63.7432 79.2754 63.5276C79.4219 63.4522 79.5668 63.3665 79.7102 63.2689C80.0366 63.0465 80.3008 62.8228 80.5259 62.5858C80.7619 62.3376 80.9536 62.0731 81.1185 61.7766C80.6174 61.7814 80.4416 61.2758 80.6602 60.7692ZM78.4818 58.0451C78.5043 58.0431 79.0449 58.0003 79.4195 58.5086C79.4569 58.5592 79.4444 58.6327 79.3917 58.6728C79.3662 58.6918 79.3359 58.7 79.3073 58.6973C79.2767 58.6945 79.2478 58.6796 79.2285 58.6534C78.9265 58.244 78.4958 58.278 78.491 58.2784C78.4271 58.2835 78.372 58.2369 78.3696 58.1723C78.3666 58.108 78.4169 58.0513 78.4818 58.0451ZM78.1445 58.8292C78.1418 58.8309 78.1394 58.8309 78.1367 58.8326C78.2306 58.887 78.2775 59.0359 78.238 59.2049C78.1925 59.4011 78.0527 59.5411 77.9259 59.518C77.7988 59.4949 77.7331 59.3174 77.7784 59.1212C77.8045 59.0087 77.863 58.9193 77.931 58.8639C77.7872 58.8101 77.7093 58.6089 77.7093 58.6089L78.1445 58.8292ZM75.5395 57.9132C75.5089 57.9278 75.4755 57.9285 75.4473 57.9176C75.4205 57.9074 75.398 57.8874 75.3858 57.8592C75.3606 57.801 75.3882 57.731 75.4477 57.7028C76.0437 57.4192 76.4962 57.6909 76.5153 57.7028C76.569 57.7361 76.5833 57.8078 76.5472 57.8632C76.5115 57.9187 76.4388 57.9367 76.385 57.9037C76.3677 57.8932 76.0134 57.6878 75.5395 57.9132ZM75.5027 60.2361C75.96 59.8951 76.4853 59.111 76.4853 59.111L76.1644 60.4931C76.1647 60.4931 75.7033 60.5241 75.5027 60.2361ZM75.888 61.1674C77.9732 60.706 78.7361 60.6638 78.7361 60.6638C78.7361 60.6638 78.8589 61.3411 77.7923 61.5845C76.7257 61.828 76.2082 61.5624 75.888 61.1674Z" fill="#B55B52"/>
<path d="M75.9763 56.623C76.5356 57.5158 78.9014 57.611 81.0559 57.2697C81.2283 57.0323 81.4463 56.8004 81.7305 56.5828C81.9372 56.5087 82.1106 56.4992 82.2575 56.5339C82.2442 56.2146 82.1922 55.9124 82.1038 55.6302C81.3466 53.208 78.1007 52.2247 76.9953 53.7316C76.8022 53.9948 76.6733 54.3321 76.6356 54.7526C75.8529 55.586 75.7084 56.1956 75.9763 56.623Z" fill="#263238"/>
<path d="M81.2079 60.0212C81.4568 59.804 81.7536 59.6649 82.0531 59.7298C82.1306 59.7465 82.1993 59.774 82.2612 59.8077C82.9905 58.3362 83.051 56.7202 82.2575 56.5338C82.1102 56.4992 81.9372 56.5087 81.7305 56.5828C81.4462 56.8001 81.2279 57.0323 81.0559 57.2696C80.3045 58.3042 80.5459 59.4466 81.2079 60.0212Z" fill="#263238"/>
<path d="M78.7361 60.6638C78.7361 60.6638 77.9728 60.7056 75.8879 61.1674C76.2082 61.5624 76.7257 61.828 77.7926 61.5845C78.8592 61.3411 78.7361 60.6638 78.7361 60.6638Z" fill="white"/>
<path d="M77.9314 58.8639C77.8634 58.9193 77.8049 59.0088 77.7787 59.1213C77.7331 59.3175 77.7991 59.495 77.9263 59.5181C78.0531 59.5412 78.1928 59.4011 78.2384 59.2049C78.2775 59.0363 78.2309 58.8874 78.1371 58.8326C78.0575 58.884 77.9895 58.8857 77.9314 58.8639Z" fill="#263238"/>
<path d="M75.4439 58.4202C75.3759 58.4756 75.3174 58.565 75.2912 58.6776C75.2457 58.8734 75.312 59.0512 75.4388 59.0744C75.566 59.0975 75.7057 58.9574 75.7513 58.7612C75.7904 58.5922 75.7438 58.4437 75.6499 58.3889C75.57 58.4403 75.5017 58.442 75.4439 58.4202Z" fill="#263238"/>
<path d="M75.444 58.4203C75.5021 58.442 75.5701 58.4403 75.6493 58.389C75.652 58.3873 75.6541 58.3873 75.6568 58.3856L75.2328 58.1704L75.2223 58.1649C75.2223 58.1649 75.2247 58.1714 75.2291 58.1809C75.2491 58.2292 75.3236 58.3757 75.444 58.4203Z" fill="#263238"/>
<path d="M76.1647 60.4932L76.4857 59.1111C76.4857 59.1111 75.9604 59.8951 75.5031 60.2361C75.7033 60.5241 76.1647 60.4932 76.1647 60.4932Z" fill="#A02724"/>
<path d="M81.2079 60.0212C80.9644 60.2337 80.7672 60.5217 80.6601 60.7692C80.4415 61.2758 80.6173 61.7814 81.1191 61.7766C81.1688 61.7763 81.2174 61.7766 81.2732 61.7658C81.6869 61.6845 82.1473 61.4248 82.4451 60.9981C82.7403 60.5748 82.6661 60.0287 82.2609 59.8081C82.1986 59.7744 82.1303 59.7472 82.0528 59.7302C81.7539 59.6652 81.4568 59.804 81.2079 60.0212Z" fill="#B55B52"/>
<path d="M78.4906 58.2784C78.4957 58.2781 78.9261 58.2441 79.2281 58.6534C79.2474 58.6796 79.2763 58.6946 79.3069 58.6973C79.3355 58.7 79.3658 58.6918 79.3913 58.6728C79.444 58.6327 79.4565 58.5592 79.4191 58.5086C79.0445 58.0003 78.5042 58.0435 78.4814 58.0452C78.4165 58.0513 78.3662 58.1077 78.3689 58.1723C78.3716 58.2369 78.4267 58.2835 78.4906 58.2784Z" fill="#263238"/>
<path d="M76.3854 57.9041C76.4391 57.9368 76.5119 57.9187 76.5476 57.8637C76.5836 57.8082 76.5693 57.7365 76.5156 57.7032C76.4966 57.6913 76.044 57.4196 75.448 57.7032C75.3885 57.7314 75.361 57.8014 75.3861 57.8596C75.3984 57.8878 75.4208 57.9079 75.4477 57.9181C75.4759 57.9286 75.5092 57.9279 75.5398 57.9136C76.0134 57.6879 76.3677 57.8932 76.3854 57.9041Z" fill="#263238"/>
<path d="M77.9314 58.8639C77.9895 58.8856 78.0575 58.8839 78.1368 58.8326C78.1395 58.8309 78.1419 58.8309 78.1446 58.8292L77.7097 58.6089C77.7097 58.6089 77.7879 58.8102 77.9314 58.8639Z" fill="#263238"/>
<path d="M83.4611 66.2947C83.456 66.2943 83.4519 66.295 83.4468 66.2947C82.3605 66.2362 81.9967 66.9386 81.9893 67.8913H85.9951C85.5151 67.06 84.8959 66.3807 83.4611 66.2947Z" fill="#3F8AEF"/>
<path d="M93.0205 65.8138C92.2606 66.0022 91.5293 66.2494 90.8578 66.5666C90.1914 66.8811 89.6168 67.3333 89.1588 67.8916H92.4109C91.3209 67.2044 92.4776 66.2076 93.0205 65.8138Z" fill="#263238"/>
<path d="M101.332 66.1243C100.85 65.9441 100.322 65.7975 99.7665 65.6809C99.7458 65.9002 99.5578 67.1568 98.0397 67.8916H103.595C103.154 67.1395 102.404 66.5255 101.332 66.1243Z" fill="#263238"/>
<path d="M95.0463 66.5024C95.0548 66.5034 95.0643 66.5037 95.0731 66.5047C96.4539 66.295 98.4864 65.1005 98.4864 65.1005L98.4871 65.1009C98.3912 64.2271 98.3276 62.9497 98.3864 61.7729C98.1348 62.1456 97.822 62.4679 97.4038 62.7542C97.1587 62.9218 96.9078 63.0456 96.6551 63.1326C96.2315 63.5158 95.63 63.7936 95.1554 63.7596C95.1547 63.7521 95.1523 63.7443 95.1513 63.7368C95.222 64.2978 95.1282 64.8258 94.6855 65.2358C94.6876 65.2355 94.6893 65.2348 94.691 65.2345C94.691 65.2338 93.7169 66.2888 95.0463 66.5024Z" fill="#7F3E3B"/>
<path d="M95.0891 63.3846C95.0765 63.3288 95.0619 63.2734 95.0472 63.2173C95.0619 63.273 95.0765 63.3288 95.0891 63.3846Z" fill="#7F3E3B"/>
<path opacity="0.2" d="M95.1513 63.7361C95.1367 63.6198 95.1159 63.5025 95.0887 63.3845C95.1156 63.5025 95.1377 63.6201 95.1513 63.7361Z" fill="black"/>
<path opacity="0.2" d="M95.0391 63.1887C95.0416 63.1985 95.0452 63.2082 95.0478 63.2179C95.0452 63.2082 95.0427 63.1988 95.0398 63.1891L95.0391 63.1887Z" fill="black"/>
<path d="M96.6551 63.132C96.104 63.322 95.5491 63.3271 95.0398 63.1891C95.0422 63.1986 95.0446 63.2078 95.0473 63.2173C95.0619 63.2734 95.0765 63.3288 95.0891 63.3846C95.116 63.5026 95.137 63.6199 95.1517 63.7361C95.1527 63.7436 95.1551 63.7514 95.1557 63.7589C95.63 63.7929 96.2315 63.5155 96.6551 63.132Z" fill="#7F3E3B"/>
<path opacity="0.2" d="M96.6551 63.132C96.104 63.322 95.5491 63.3271 95.0398 63.1891C95.0422 63.1986 95.0446 63.2078 95.0473 63.2173C95.0619 63.2734 95.0765 63.3288 95.0891 63.3846C95.116 63.5026 95.137 63.6199 95.1517 63.7361C95.1527 63.7436 95.1551 63.7514 95.1557 63.7589C95.63 63.7929 96.2315 63.5155 96.6551 63.132Z" fill="black"/>
<path d="M94.7267 55.4633C94.7264 55.4633 94.7264 55.4633 94.7267 55.4633C94.4945 55.5248 94.2827 55.4221 94.1307 55.2212C93.8655 55.6057 93.669 56.0763 93.5962 56.5635C93.7356 56.486 93.8648 56.4496 93.9614 56.435C94.1807 56.0729 94.434 55.7407 94.7267 55.4633Z" fill="#263238"/>
<path d="M93.5696 56.8314C93.5635 56.9508 93.5631 57.0704 93.5737 57.1888C93.6481 57.0177 93.7294 56.8511 93.8171 56.689C93.7399 56.7175 93.6553 56.7631 93.5696 56.8314Z" fill="#263238"/>
<path d="M96.6552 63.132C96.9074 63.0449 97.1587 62.9212 97.4038 62.7536C97.822 62.4673 98.1348 62.1453 98.3864 61.7723C98.5201 61.5741 98.6353 61.3602 98.7411 61.1311C98.1093 61.1892 97.9019 60.5929 98.177 60.0213C98.2603 59.8486 98.3868 59.6589 98.5411 59.4875C98.1376 58.7878 98.3497 56.8464 98.2487 56.0647C96.9989 55.3888 95.7157 55.2008 94.727 55.4629C94.4343 55.7404 94.1813 56.0722 93.9617 56.4347C94.0521 56.4207 94.1147 56.4228 94.1218 56.4228C94.18 56.4265 94.2214 56.4765 94.2157 56.535C94.2095 56.5931 94.1579 56.6376 94.0994 56.6346C94.0909 56.6342 93.9712 56.6315 93.8175 56.6883C93.7298 56.8505 93.6485 57.0171 93.5741 57.1881C93.1154 58.2401 92.8999 59.4256 92.9104 60.3702C92.926 61.7682 93.8563 62.8668 95.0395 63.1881L95.0402 63.1884C95.5491 63.3271 96.1044 63.322 96.6552 63.132ZM96.6052 56.7852C96.6246 56.7913 97.0842 56.9382 97.2236 57.5029C97.2376 57.5594 97.2029 57.6185 97.1461 57.6349C97.1278 57.6403 97.1094 57.6403 97.0924 57.6366C97.0567 57.6281 97.0275 57.6009 97.0179 57.5628C96.9068 57.1123 96.5498 56.9936 96.5348 56.9889C96.4797 56.9719 96.4508 56.9127 96.4702 56.8566C96.4896 56.8002 96.5501 56.7682 96.6052 56.7852ZM95.7072 57.9789C95.7474 57.8011 95.8728 57.674 95.9881 57.6954C96.1033 57.7165 96.1642 57.878 96.1241 58.0558C96.084 58.2336 95.9585 58.3608 95.8432 58.3397C95.7283 58.3183 95.6675 58.1568 95.7072 57.9789ZM93.5816 57.7369C93.6217 57.559 93.7475 57.4319 93.8624 57.453C93.9777 57.474 94.0385 57.6355 93.9984 57.8134C93.9583 57.9912 93.8325 58.1183 93.7172 58.0973C93.6026 58.0762 93.5418 57.9147 93.5816 57.7369ZM93.6897 59.3114C94.2422 58.8973 94.8736 57.9446 94.8736 57.9446L94.4955 59.6256C94.4955 59.6256 93.9352 59.6626 93.6897 59.3114ZM94.7617 60.1682C94.7753 60.1383 94.8096 60.124 94.8389 60.1362C94.8457 60.139 95.508 60.4018 96.2441 59.9071C96.2703 59.8874 96.307 59.8952 96.324 59.9214C96.3407 59.9475 96.3325 59.9836 96.3053 60.0019C96.2179 60.0611 96.1316 60.1101 96.0472 60.1505C95.371 60.4749 94.8165 60.2546 94.7903 60.2437C94.761 60.2318 94.7484 60.1978 94.7617 60.1682Z" fill="#7F3E3B"/>
<path d="M94.7263 55.4632C95.7154 55.2011 96.9985 55.3891 98.2484 56.065C99.4659 55.6455 100.287 55.6434 100.861 55.9331C101.777 54.8509 99.7131 53.565 97.7761 53.4314C98.4065 53.0455 98.2477 51.7198 96.0166 52.289C93.7872 52.8575 93.6363 54.5666 94.1306 55.2211C94.2826 55.4221 94.4944 55.5248 94.7263 55.4632Z" fill="#263238"/>
<path d="M98.2484 56.065C98.3494 56.8466 98.1372 58.788 98.5408 59.4877C98.8584 59.1345 99.2946 58.8594 99.7192 58.9743C99.9453 59.0355 100.104 59.1698 100.2 59.3392C100.578 58.9393 100.843 58.3685 100.811 57.9261C101.197 58.0206 102.033 57.2036 101.478 56.4604C101.31 56.2363 101.108 56.0582 100.861 55.9334C100.287 55.6434 99.466 55.6454 98.2484 56.065Z" fill="#263238"/>
<path d="M96.0469 60.1505C96.1312 60.11 96.2179 60.0611 96.305 60.0019C96.3322 59.9835 96.3407 59.9475 96.3237 59.9213C96.3067 59.8951 96.27 59.8873 96.2438 59.9071C95.5077 60.4018 94.8454 60.1389 94.8386 60.1362C94.8093 60.1243 94.775 60.1382 94.7614 60.1682C94.7481 60.1977 94.7607 60.2317 94.7896 60.2436C94.8161 60.2542 95.3707 60.4748 96.0469 60.1505Z" fill="#263238"/>
<path d="M99.7192 58.9744C99.2945 58.8595 98.8583 59.1345 98.5407 59.4878C98.3864 59.6591 98.2599 59.8489 98.1766 60.0216C97.9016 60.5931 98.109 61.1895 98.7407 61.1313C98.7584 61.1296 98.773 61.133 98.7913 61.1303C99.2394 61.0647 99.7457 60.809 100.085 60.3643C100.331 60.0406 100.366 59.6353 100.199 59.3392C100.104 59.1699 99.9453 59.0356 99.7192 58.9744Z" fill="#7F3E3B"/>
<path d="M95.8432 58.3393C95.9585 58.3604 96.084 58.2336 96.1241 58.0554C96.1642 57.8776 96.1033 57.7161 95.9881 57.695C95.8728 57.674 95.7474 57.8008 95.7072 57.9786C95.6675 58.1568 95.7283 58.3183 95.8432 58.3393Z" fill="#263238"/>
<path d="M93.9987 57.8136C94.0389 57.6358 93.978 57.4743 93.8627 57.4532C93.7478 57.4321 93.622 57.559 93.5819 57.7371C93.5418 57.9149 93.603 58.0764 93.7179 58.0975C93.8328 58.1186 93.9586 57.9914 93.9987 57.8136Z" fill="#263238"/>
<path d="M93.6897 59.3114C93.9352 59.6623 94.4952 59.6255 94.4952 59.6255L94.8732 57.9446C94.8732 57.9446 94.2419 58.8973 93.6897 59.3114Z" fill="#630F0F"/>
<path d="M96.5347 56.9889C96.5497 56.9936 96.9067 57.1123 97.0179 57.5628C97.0274 57.6009 97.0566 57.6281 97.0923 57.6366C97.1093 57.6406 97.1277 57.6403 97.1461 57.6349C97.2032 57.6182 97.2379 57.5594 97.2236 57.5029C97.0842 56.9382 96.6245 56.7913 96.6051 56.7852C96.5497 56.7682 96.4895 56.8002 96.4701 56.8563C96.4508 56.9124 96.4797 56.9715 96.5347 56.9889Z" fill="#263238"/>
<path d="M94.099 56.6352C94.1572 56.6382 94.2092 56.5937 94.2153 56.5355C94.2214 56.4774 94.1796 56.4271 94.1215 56.4233C94.1143 56.423 94.0514 56.4213 93.9613 56.4352C93.8648 56.4499 93.7356 56.4862 93.5962 56.5638C93.4778 56.6294 93.3544 56.7229 93.2412 56.866C93.2041 56.9129 93.2109 56.9792 93.2562 57.0146C93.2728 57.0275 93.2925 57.0343 93.3126 57.0357C93.3469 57.0377 93.382 57.0228 93.4054 56.9932C93.4581 56.9262 93.5139 56.8755 93.5693 56.8313C93.655 56.763 93.7396 56.7178 93.8168 56.6892C93.9708 56.6321 94.0902 56.6348 94.099 56.6352Z" fill="#263238"/>
<path d="M96.1445 66.9403C95.7538 67.1701 95.2741 67.5795 94.9378 67.8862C94.9375 67.8879 94.9375 67.8899 94.9371 67.892H96.9642C96.7963 67.503 96.5028 67.181 96.1445 66.9403Z" fill="#E0E0E0"/>
<path d="M95.0643 66.506C95.067 66.5057 95.07 66.505 95.0728 66.5043C95.0639 66.5037 95.0547 66.503 95.0459 66.502C95.0527 66.5033 95.0575 66.505 95.0643 66.506Z" fill="#E0E0E0"/>
<path d="M93.8988 66.7794C93.3646 67.0157 92.8733 67.3972 92.5442 67.8916H94.1521C94.1833 67.8463 94.215 67.8035 94.2462 67.7624C94.1279 67.5097 93.9974 67.1728 93.8988 66.7794Z" fill="#E0E0E0"/>
<path d="M94.9316 67.892H94.9377C94.9381 67.8902 94.9381 67.888 94.9385 67.8859C94.9366 67.888 94.9343 67.8898 94.9316 67.892Z" fill="#263238"/>
<path d="M94.1521 67.8915H94.3092C94.2884 67.8501 94.2684 67.8099 94.2459 67.7623C94.2147 67.8035 94.1834 67.8463 94.1521 67.8915Z" fill="#263238"/>
<path d="M96.1445 66.9403C95.8239 66.7244 95.4523 66.5724 95.0643 66.5065C94.6849 66.5119 94.282 66.6102 93.8988 66.7795C93.9974 67.1729 94.1276 67.5098 94.2459 67.7628C94.268 67.8104 94.2881 67.8505 94.3092 67.892H94.9317C94.9338 67.8899 94.9358 67.8882 94.9378 67.8862C95.2744 67.5795 95.7538 67.1702 96.1445 66.9403Z" fill="#263238"/>
<path d="M99.7668 65.6809C99.7688 65.6595 99.7698 65.6446 99.7698 65.6446C99.7698 65.6446 99.3102 65.2712 98.487 65.1006L98.4863 65.1002C98.4863 65.1002 96.4535 66.2946 95.0731 66.5044C95.0704 66.5048 95.0673 66.5058 95.0646 66.5061C95.4529 66.5721 95.8241 66.7244 96.1448 66.94C96.5031 67.181 96.7965 67.5027 96.9645 67.8913H98.0399C99.5577 67.1569 99.746 65.9002 99.7668 65.6809Z" fill="#FAFAFA"/>
<path d="M93.8987 66.7794C94.2819 66.6098 94.6848 66.5115 95.0643 66.5064C95.0575 66.5054 95.0527 66.5037 95.0462 66.5027C93.7168 66.2891 94.6909 65.2341 94.6909 65.2341C94.6892 65.2345 94.6875 65.2348 94.6855 65.2355C93.8474 65.4058 93.2697 65.6448 93.2697 65.6448C93.2697 65.6448 93.1674 65.7077 93.0205 65.8142C92.4775 66.2079 91.3208 67.2048 92.4112 67.8919H92.5445C92.8736 67.3972 93.3649 67.0157 93.8987 66.7794Z" fill="#FAFAFA"/>
<path d="M113.164 57.166L113.176 57.1735C113.363 56.8318 113.576 56.5047 113.812 56.2031C113.71 56.2432 113.599 56.3034 113.486 56.4C113.46 56.4217 113.429 56.4319 113.4 56.4309C113.373 56.4299 113.347 56.419 113.329 56.3976C113.292 56.3541 113.301 56.2844 113.35 56.2419C113.603 56.0256 113.853 55.9478 114.041 55.9236C114.48 55.4282 114.993 55.0308 115.572 54.7938C115.47 54.5646 115.415 54.3549 115.4 54.1665C114.358 54.3725 113.384 54.8183 112.701 55.5075C111.332 56.8896 111.777 58.4488 112.278 59.647C112.427 58.8694 112.729 57.9922 113.17 57.186C113.166 57.1738 113.164 57.166 113.164 57.166Z" fill="#263238"/>
<path d="M120.425 57.6848C120.484 58.0482 120.413 58.46 120.222 58.884C120.396 59.2559 120.427 59.7496 120.26 60.2603C119.957 61.1874 119.137 61.8046 118.429 61.6393C118.221 61.5907 118.051 61.4751 117.915 61.32C117.643 61.6686 117.323 61.9616 116.903 62.2347C116.788 62.847 116.719 63.4763 116.754 64.0248C119.692 63.8082 121.139 62.1099 121.511 60.078C121.896 57.9724 121.689 56.6427 121.024 56.2401C121.233 56.9745 121.05 57.561 120.425 57.6848Z" fill="#263238"/>
<path d="M114.471 63.1115C114.469 63.0639 114.465 63.016 114.462 62.9684C114.46 62.9483 114.458 62.9283 114.456 62.9082C113.659 62.8212 112.98 62.4203 112.577 61.8029C112.015 62.3152 110.814 62.4839 110.814 62.4839C110.814 62.4839 111.831 63.5501 114.405 63.9251C114.444 63.7653 114.464 63.5994 114.471 63.4298C114.477 63.325 114.475 63.2183 114.471 63.1115Z" fill="#263238"/>
<path d="M114.851 67.8916H121.927C121.941 66.6319 119.875 65.4994 118.595 65.3688C118.322 65.3409 118.035 65.3185 117.743 65.2998C117.752 65.3052 117.763 65.3114 117.772 65.3165C117.12 66.2654 115.332 67.5543 114.851 67.8916Z" fill="#3F8AEF"/>
<path d="M113.603 66.4595C113.408 66.5663 113.208 66.6799 112.997 66.8063C112.873 66.6156 112.791 66.4483 112.733 66.2987C112.734 66.3062 112.736 66.3113 112.736 66.3113C112.736 66.3113 111.998 66.4691 111.58 67.4833C111.507 66.0774 111.952 65.5596 112.231 65.3743C112.046 65.397 111.86 65.4198 111.679 65.445C110.31 65.6337 108.613 66.6296 107.947 67.8916H114.712C114.648 67.5907 114.378 66.5724 113.603 66.4595Z" fill="#3F8AEF"/>
<path d="M114.471 63.1115C114.469 63.0639 114.465 63.0163 114.462 62.9684C114.466 63.0163 114.469 63.0639 114.471 63.1115Z" fill="#CE7A63"/>
<path d="M116.903 62.235C116.791 62.3077 116.674 62.3798 116.546 62.4505C116.245 62.6171 115.942 62.7341 115.643 62.8123C115.297 63.1414 114.833 63.3974 114.472 63.4488C114.472 63.4427 114.471 63.4362 114.471 63.4301C114.464 63.5994 114.444 63.7657 114.405 63.9255C114.28 64.4443 113.958 64.8917 113.273 65.1539C113.275 65.1542 113.277 65.1542 113.28 65.1546C112.586 65.5112 112.711 66.2007 112.732 66.2987C112.79 66.4483 112.874 66.6155 112.996 66.8063C113.208 66.6795 113.408 66.5662 113.602 66.4595C113.602 66.4595 113.601 66.4591 113.601 66.4591C114.111 65.9787 116.473 65.0141 116.915 64.836C116.824 64.6007 116.773 64.3256 116.754 64.0247C116.719 63.4767 116.789 62.847 116.903 62.235Z" fill="#CE7A63"/>
<path d="M113.601 66.4592C113.602 66.4592 113.602 66.4595 113.603 66.4595C114.378 66.5724 114.648 67.5907 114.712 67.8916H114.851C115.332 67.5543 117.12 66.2654 117.772 65.3164C117.763 65.3113 117.752 65.3049 117.743 65.2998C117.426 65.124 116.993 64.8051 116.993 64.8051C116.993 64.8051 116.961 64.818 116.915 64.8363C116.473 65.0142 114.112 65.9787 113.601 66.4592Z" fill="white"/>
<path d="M111.58 67.4836C111.998 66.4694 112.736 66.3116 112.736 66.3116C112.736 66.3116 112.735 66.3065 112.733 66.2991C112.711 66.2011 112.585 65.5116 113.28 65.155C113.277 65.1546 113.275 65.1546 113.273 65.1543C112.74 65.072 112.443 65.275 112.443 65.275C112.443 65.275 112.353 65.293 112.231 65.3746C111.952 65.5599 111.507 66.0777 111.58 67.4836Z" fill="white"/>
<path d="M114.471 63.1116C114.475 63.2183 114.477 63.3251 114.471 63.4302C114.476 63.3248 114.476 63.2187 114.471 63.1116Z" fill="#263238"/>
<path opacity="0.2" d="M114.471 63.1116C114.475 63.2183 114.477 63.3251 114.471 63.4302C114.476 63.3248 114.476 63.2187 114.471 63.1116Z" fill="black"/>
<path d="M114.456 62.9086C114.458 62.9286 114.46 62.9487 114.462 62.9688C114.46 62.9487 114.459 62.929 114.458 62.9089C114.457 62.9086 114.456 62.9086 114.456 62.9086Z" fill="#263238"/>
<path opacity="0.2" d="M114.456 62.9086C114.458 62.9286 114.46 62.9487 114.462 62.9688C114.46 62.9487 114.459 62.929 114.458 62.9089C114.457 62.9086 114.456 62.9086 114.456 62.9086Z" fill="black"/>
<path d="M114.458 62.9086C114.459 62.9287 114.46 62.9484 114.462 62.9684C114.465 63.0164 114.469 63.064 114.471 63.1116C114.476 63.2187 114.476 63.3248 114.471 63.4302C114.471 63.4363 114.472 63.4427 114.472 63.4489C114.833 63.3975 115.298 63.1415 115.643 62.8124C115.234 62.9195 114.833 62.9494 114.458 62.9086Z" fill="#CE7A63"/>
<path opacity="0.2" d="M114.458 62.9086C114.459 62.9287 114.46 62.9484 114.462 62.9684C114.465 63.0164 114.469 63.064 114.471 63.1116C114.476 63.2187 114.476 63.3248 114.471 63.4302C114.471 63.4363 114.472 63.4427 114.472 63.4489C114.833 63.3975 115.298 63.1415 115.643 62.8124C115.234 62.9195 114.833 62.9494 114.458 62.9086Z" fill="black"/>
<path d="M114.456 62.9085L114.458 62.9088C114.833 62.9496 115.234 62.9197 115.643 62.8126C115.942 62.7344 116.245 62.6171 116.546 62.4509C116.674 62.3801 116.791 62.3081 116.903 62.2353C117.324 61.9623 117.643 61.6692 117.915 61.3207C117.587 60.9467 117.48 60.317 117.694 59.6615C117.754 59.4776 117.839 59.3103 117.935 59.1542C117.608 58.5769 117.477 57.8231 117.656 57.0602C116.896 56.6294 116.2 55.9671 115.68 55.013C115.639 54.9379 115.604 54.8655 115.572 54.7941C114.993 55.031 114.48 55.4285 114.041 55.9239C114.222 55.9004 114.345 55.9266 114.356 55.929C114.414 55.9426 114.444 56.0014 114.423 56.0606C114.402 56.1197 114.338 56.1568 114.28 56.1439C114.266 56.1408 114.067 56.1034 113.812 56.203C113.576 56.5049 113.363 56.8317 113.176 57.1734L113.542 57.4042C113.54 57.4056 113.538 57.4056 113.535 57.407C113.615 57.4651 113.639 57.6086 113.578 57.7646C113.507 57.9462 113.356 58.0683 113.24 58.0377C113.124 58.0071 113.087 57.835 113.157 57.6535C113.198 57.5491 113.265 57.4692 113.337 57.4216C113.234 57.3726 113.184 57.237 113.17 57.1856C112.73 57.9918 112.428 58.8686 112.278 59.6465C112.249 59.7965 112.225 59.9434 112.207 60.0845C112.124 60.7553 112.274 61.3391 112.577 61.8032C112.98 62.4203 113.659 62.8211 114.456 62.9085ZM116.231 58.6017C116.231 58.6017 116.714 58.5609 116.96 58.8815C116.529 58.82 116.231 58.6017 116.231 58.6017ZM117.116 58.4871C116.632 58.5307 116.251 58.393 116.251 58.393C116.251 58.393 116.764 58.2396 117.116 58.4871ZM115.788 56.8293C115.81 56.829 116.324 56.8259 116.606 57.3305C116.634 57.3808 116.612 57.4491 116.556 57.4835C116.53 57.4998 116.5 57.5052 116.473 57.5008C116.445 57.496 116.42 57.4801 116.405 57.4539C116.179 57.0472 115.769 57.0496 115.764 57.0496C115.703 57.05 115.658 57.0024 115.664 56.9415C115.671 56.8803 115.726 56.8303 115.788 56.8293ZM115.354 58.1988C115.394 58.0944 115.462 58.0145 115.533 57.9669C115.406 57.9064 115.361 57.7109 115.361 57.7109L115.739 57.9493C115.736 57.9506 115.734 57.9506 115.731 57.952C115.812 58.0101 115.835 58.1536 115.774 58.3097C115.704 58.4912 115.553 58.6133 115.436 58.5827C115.32 58.5521 115.283 58.3804 115.354 58.1988ZM115.435 60.0253C115.46 60.0046 115.495 60.0063 115.513 60.0287C115.531 60.0511 115.525 60.0862 115.5 60.1066C115.477 60.1246 115.01 60.4955 114.336 60.4432C114.238 60.4353 114.135 60.4187 114.028 60.3908C113.999 60.3833 113.985 60.3531 113.997 60.3238C114.008 60.2946 114.04 60.2769 114.069 60.2844C114.848 60.4904 115.429 60.0301 115.435 60.0253ZM114.071 58.2233L113.575 59.5027C113.575 59.5027 113.137 59.4997 112.989 59.2141C113.467 58.9247 114.071 58.2233 114.071 58.2233Z" fill="#CE7A63"/>
<path d="M120.222 58.884C120.413 58.46 120.485 58.0483 120.426 57.6848C120.349 57.7001 120.268 57.7107 120.178 57.7113C120.16 57.7117 120.141 57.7103 120.123 57.71C120.065 57.9582 119.991 58.2128 119.901 58.4712C120.036 58.5773 120.143 58.7171 120.222 58.884Z" fill="#263238"/>
<path opacity="0.7" d="M120.222 58.884C120.413 58.46 120.485 58.0483 120.426 57.6848C120.349 57.7001 120.268 57.7107 120.178 57.7113C120.16 57.7117 120.141 57.7103 120.123 57.71C120.065 57.9582 119.991 58.2128 119.901 58.4712C120.036 58.5773 120.143 58.7171 120.222 58.884Z" fill="#263238"/>
<path d="M118.897 58.3307C118.897 58.3301 118.895 58.326 118.895 58.326C118.977 58.0941 119.052 57.8524 119.118 57.6059C118.624 57.5052 118.128 57.3277 117.656 57.0598C117.477 57.8231 117.608 58.5766 117.935 59.1539C118.183 58.752 118.529 58.4579 118.897 58.3307Z" fill="#CE7A63"/>
<path opacity="0.7" d="M118.897 58.3307C118.897 58.3301 118.895 58.326 118.895 58.326C118.977 58.0941 119.052 57.8524 119.118 57.6059C118.624 57.5052 118.128 57.3277 117.656 57.0598C117.477 57.8231 117.608 58.5766 117.935 59.1539C118.183 58.752 118.529 58.4579 118.897 58.3307Z" fill="#263238"/>
<path d="M116.251 58.393C116.251 58.393 116.632 58.5307 117.116 58.4872C116.764 58.2397 116.251 58.393 116.251 58.393Z" fill="#CE7A63"/>
<path opacity="0.2" d="M116.251 58.393C116.251 58.393 116.632 58.5307 117.116 58.4872C116.764 58.2397 116.251 58.393 116.251 58.393Z" fill="black"/>
<path d="M116.231 58.6018C116.231 58.6018 116.529 58.8201 116.96 58.8816C116.714 58.561 116.231 58.6018 116.231 58.6018Z" fill="#CE7A63"/>
<path opacity="0.2" d="M116.231 58.6018C116.231 58.6018 116.529 58.8201 116.96 58.8816C116.714 58.561 116.231 58.6018 116.231 58.6018Z" fill="black"/>
<path d="M115.437 58.5831C115.553 58.6137 115.704 58.4916 115.774 58.3101C115.835 58.1537 115.812 58.0102 115.732 57.9524C115.65 57.9949 115.585 57.9918 115.534 57.9674C115.462 58.0146 115.394 58.0949 115.354 58.1992C115.283 58.3805 115.32 58.5522 115.437 58.5831Z" fill="#263238"/>
<path d="M113.337 57.4216C113.265 57.4689 113.197 57.5491 113.157 57.6535C113.087 57.835 113.124 58.0067 113.24 58.0377C113.356 58.0683 113.507 57.9462 113.578 57.7647C113.638 57.6083 113.615 57.4648 113.535 57.407C113.452 57.4495 113.388 57.4464 113.337 57.4216Z" fill="#263238"/>
<path d="M113.17 57.186C113.184 57.2373 113.234 57.373 113.337 57.4219C113.388 57.4464 113.452 57.4495 113.534 57.407C113.537 57.4056 113.539 57.4056 113.542 57.4042L113.176 57.1734L113.164 57.1659C113.164 57.1659 113.166 57.1737 113.17 57.186Z" fill="#263238"/>
<path d="M113.575 59.5028L114.071 58.2234C114.071 58.2234 113.466 58.9248 112.988 59.2141C113.136 59.4994 113.575 59.5028 113.575 59.5028Z" fill="#BA4D3C"/>
<path d="M113.997 60.3236C113.985 60.3531 113.999 60.3831 114.028 60.3905C114.135 60.4188 114.238 60.4354 114.336 60.4429C115.01 60.4953 115.477 60.1243 115.5 60.1063C115.525 60.0859 115.531 60.0509 115.513 60.0284C115.495 60.006 115.46 60.0043 115.435 60.025C115.429 60.0298 114.848 60.4902 114.07 60.2838C114.04 60.2766 114.008 60.2943 113.997 60.3236Z" fill="#263238"/>
<path d="M115.764 57.0497C115.769 57.0497 116.178 57.0473 116.405 57.4539C116.42 57.4798 116.445 57.4961 116.473 57.5009C116.5 57.5053 116.53 57.4998 116.556 57.4835C116.612 57.4495 116.634 57.3809 116.606 57.3305C116.324 56.8256 115.81 56.829 115.788 56.8294C115.726 56.8304 115.671 56.8804 115.664 56.9412C115.658 57.0021 115.703 57.05 115.764 57.0497Z" fill="#263238"/>
<path d="M113.328 56.3975C113.347 56.4186 113.373 56.4298 113.4 56.4308C113.429 56.4318 113.46 56.4216 113.485 56.3999C113.599 56.303 113.709 56.2428 113.812 56.203C114.067 56.1034 114.266 56.1405 114.279 56.1439C114.337 56.1568 114.402 56.1197 114.423 56.0606C114.444 56.0011 114.414 55.9422 114.355 55.929C114.345 55.9266 114.222 55.9004 114.041 55.9239C113.853 55.948 113.602 56.0259 113.35 56.2421C113.301 56.2843 113.291 56.354 113.328 56.3975Z" fill="#263238"/>
<path d="M115.731 57.952C115.734 57.9506 115.736 57.951 115.739 57.9493L115.361 57.7109C115.361 57.7109 115.406 57.9061 115.533 57.967C115.585 57.9914 115.65 57.9948 115.731 57.952Z" fill="#263238"/>
<path d="M120.123 57.7099C120.141 57.7099 120.16 57.7113 120.178 57.7113C120.268 57.7106 120.349 57.7001 120.426 57.6848C121.05 57.561 121.233 56.9745 121.025 56.2401C120.871 55.6988 120.504 55.0797 119.94 54.5048C120.283 55.1144 120.446 56.3142 120.123 57.7099Z" fill="#263238"/>
<path d="M115.68 55.0127C116.2 55.9668 116.897 56.6287 117.656 57.0599C118.128 57.3278 118.624 57.5053 119.118 57.6059C119.507 56.1667 119.578 54.5558 118.796 53.5973C117.078 52.5698 115.303 52.8867 115.4 54.1665C115.415 54.3552 115.47 54.5646 115.572 54.7938C115.604 54.8652 115.639 54.9376 115.68 55.0127Z" fill="#263238"/>
<path d="M118.429 61.6394C119.138 61.8049 119.957 61.1875 120.26 60.2603C120.427 59.7496 120.396 59.256 120.222 58.884C120.144 58.7171 120.036 58.5773 119.901 58.4712C119.886 58.5144 119.873 58.5569 119.857 58.6001C119.141 58.8551 118.909 58.3577 118.898 58.3308C118.529 58.458 118.183 58.7524 117.936 59.1539C117.84 59.31 117.755 59.4773 117.695 59.6612C117.481 60.3167 117.587 60.9461 117.916 61.3204C118.051 61.4751 118.222 61.5911 118.429 61.6394ZM119.836 58.834C120.251 58.8959 120.376 59.5249 120.116 60.2385C119.857 60.9522 119.31 61.4806 118.896 61.4187C118.482 61.3568 118.357 60.7278 118.616 60.0141C118.876 59.3005 119.422 58.7721 119.836 58.834Z" fill="#3F8AEF"/>
<path d="M118.616 60.0142C118.356 60.7278 118.482 61.3568 118.896 61.4187C119.311 61.4806 119.857 60.9526 120.116 60.2386C120.376 59.5249 120.251 58.8959 119.836 58.834C119.422 58.7721 118.876 59.3005 118.616 60.0142Z" fill="#3F8AEF"/>
<path opacity="0.3" d="M118.616 60.0142C118.356 60.7278 118.482 61.3568 118.896 61.4187C119.311 61.4806 119.857 60.9526 120.116 60.2386C120.376 59.5249 120.251 58.8959 119.836 58.834C119.422 58.7721 118.876 59.3005 118.616 60.0142Z" fill="black"/>
<path d="M119.118 57.6059C119.052 57.852 118.977 58.0938 118.895 58.326C118.895 58.326 118.897 58.3301 118.897 58.3308C118.909 58.358 119.141 58.855 119.857 58.6C119.873 58.5569 119.886 58.5144 119.901 58.4712C119.991 58.2128 120.065 57.9581 120.122 57.7099C120.446 56.3142 120.283 55.1144 119.939 54.5051C119.937 54.502 119.936 54.4983 119.934 54.4949C119.934 54.4949 119.233 53.636 118.794 53.5956C118.795 53.5963 118.795 53.5969 118.796 53.5976C119.578 54.5557 119.507 56.1667 119.118 57.6059Z" fill="#3F8AEF"/>
<path d="M86.2393 72.2908H90.7837C91.1754 72.2908 91.4957 72.6111 91.4957 73.0027V78.7623C91.4957 79.154 91.1754 79.4743 90.7837 79.4743H86.2393C85.8476 79.4743 85.5273 79.154 85.5273 78.7623V73.0027C85.5273 72.6111 85.8476 72.2908 86.2393 72.2908Z" fill="#3F8AEF"/>
<path d="M86.5473 78.4325C85.1411 78.4325 83.9973 77.2888 83.9973 75.8825C83.9973 74.4763 85.1411 73.3325 86.5473 73.3325C87.9536 73.3325 89.0973 74.4763 89.0973 75.8825C89.0973 77.2884 87.9536 78.4325 86.5473 78.4325ZM86.5473 73.6725C85.3288 73.6725 84.3373 74.664 84.3373 75.8825C84.3373 77.1011 85.3288 78.0925 86.5473 78.0925C87.7659 78.0925 88.7573 77.1011 88.7573 75.8825C88.7573 74.664 87.7659 73.6725 86.5473 73.6725Z" fill="#3F8AEF"/>
<path d="M81.633 137.862L85.9864 137.45L83.0536 126.727L78.7002 127.139L81.633 137.862Z" fill="#FFB573"/>
<path d="M91.3172 140.496C88.672 139.656 88.7825 138.487 86.1717 136.274C85.8881 136.033 85.5716 135.85 85.2295 135.819L80.9006 135.429C80.7402 135.414 80.5926 135.538 80.5511 135.724L79.8786 138.712C79.646 139.745 80.2662 140.757 81.1631 140.811C82.6071 140.897 84.3738 140.985 85.9483 141.128C88.2433 141.334 88.2457 142.498 90.9497 142.424C92.5844 142.38 92.2196 140.783 91.3172 140.496Z" fill="#263238"/>
<path d="M55.6805 90.6815C55.6805 90.6815 80.1815 89.9433 80.3883 98.6239C80.7303 112.979 85.133 133.515 85.133 133.515L80.3066 133.964C80.3066 133.964 72.9997 117.602 71.0668 103.58C62.339 104.146 54.2929 103.755 47.8479 103.755C40.6249 103.755 40.0282 95.8226 47.0584 86.5671C51.356 86.5675 55.6805 90.6815 55.6805 90.6815Z" fill="#3F8AEF"/>
<path opacity="0.5" d="M55.6805 90.6815C55.6805 90.6815 80.1815 89.9433 80.3883 98.6239C80.7303 112.979 85.133 133.515 85.133 133.515L80.3066 133.964C80.3066 133.964 72.9997 117.602 71.0668 103.58C62.339 104.146 54.2929 103.755 47.8479 103.755C40.6249 103.755 40.0282 95.8226 47.0584 86.5671C51.356 86.5675 55.6805 90.6815 55.6805 90.6815Z" fill="white"/>
<path d="M85.6025 133.817L80.085 134.458L78.8419 131.331L85.1329 129.323L85.6025 133.817Z" fill="#3F8AEF"/>
<path d="M47.3307 48.7333C47.7788 51.4431 48.1589 56.3952 46.2206 58.1367C46.2206 58.1367 50.9517 60.6139 54.0542 64.9377C57.3726 62.3088 54.5938 58.3862 54.5938 58.3862C51.6109 57.5794 51.7548 55.3527 52.3402 53.275L47.3307 48.7333Z" fill="#FFB573"/>
<path d="M44.71 58.9924C44.54 57.1442 43.8318 56.2959 43.8318 56.2959C43.8318 56.2959 51.255 55.6689 55.3918 57.2414C56.221 58.8309 56.95 60.4735 56.95 60.4735L44.71 58.9924Z" fill="#3F8AEF"/>
<path d="M62.5569 65.4895C62.2686 69.408 61.3969 76.0071 59.2494 87.1156L40.8095 86.5672C41.2933 79.7604 40.563 74.6852 38.8947 62.7719C38.59 60.5976 40.1537 58.6093 42.3375 58.3842C43.5217 58.2622 44.8661 58.1615 46.2203 58.1364C49.3279 58.0792 51.8731 58.0558 54.5935 58.3856C55.4921 58.4947 56.4199 58.6365 57.3063 58.7875C60.5231 59.3369 62.7963 62.2357 62.5569 65.4895Z" fill="#263238"/>
<path d="M56.9419 44.6114C56.9915 44.9746 57.2241 45.2425 57.4614 45.2098C57.6987 45.1775 57.8507 44.8569 57.8014 44.4938C57.7518 44.1307 57.5192 43.8628 57.2819 43.8954C57.0442 43.9277 56.8923 44.2483 56.9419 44.6114Z" fill="#263238"/>
<path d="M57.1796 43.9298L58.017 43.5592C58.017 43.5592 57.6627 44.3014 57.1796 43.9298Z" fill="#263238"/>
<path d="M57.0765 45.1731C57.0765 45.1731 57.9061 46.6518 58.6871 47.3131C58.2689 47.8258 57.4264 47.7326 57.4264 47.7326L57.0765 45.1731Z" fill="#ED893E"/>
<path d="M56.9334 41.4212C56.9732 41.3597 56.9806 41.2791 56.9456 41.2084C56.8929 41.102 56.7637 41.0584 56.6573 41.1111C55.5911 41.6392 55.4622 42.6245 55.4574 42.666C55.4435 42.7839 55.5278 42.891 55.6458 42.905C55.7631 42.9189 55.8702 42.8353 55.8848 42.7176C55.8889 42.6853 55.9967 41.9186 56.8484 41.4967C56.8841 41.479 56.913 41.4525 56.9334 41.4212Z" fill="#263238"/>
<path d="M44.3935 44.7363C45.2765 49.157 45.5559 51.047 48.1202 53.0275C51.9775 56.0066 57.2142 53.955 57.6698 49.3596C58.0799 45.2232 56.5668 38.6887 51.9605 37.5109C47.4222 36.3509 43.5105 40.3156 44.3935 44.7363Z" fill="#FFB573"/>
<path d="M54.0032 46.0133C55.0232 50.0651 52.0482 51.2551 52.0482 51.2551C52.9271 52.933 50.6566 56.5679 46.325 54.4236C42.4622 52.5111 44.7668 49.7251 44.7668 49.7251C44.7668 49.7251 41.6786 49.0417 40.4886 44.5527C39.2986 40.0633 41.9053 36.8619 46.4953 35.7569C51.0853 34.6519 53.6938 35.7837 54.5421 37.8537C55.4203 36.9754 57.595 38.3919 57.3719 40.3187C55.8457 42.1887 53.2957 41.9979 53.2957 41.9979C53.2957 41.9979 57.46 44.7951 54.0032 46.0133Z" fill="#263238"/>
<path d="M43.3541 37.6411C44.7991 35.2285 35.7163 26.7132 30.5599 36.5058C25.4035 46.2982 32.4891 46.5423 33.3955 53.2668C40.3845 48.1668 38.6492 39.0603 37.23 36.8843C41.0146 36.7421 41.6725 40.5267 43.3541 37.6411Z" fill="#263238"/>
<path d="M41.1801 39.2731C39.8792 37.9723 38.5247 38.1141 38.9062 37.31C39.2877 36.5059 41.4616 34.6484 41.0842 33.472C43.1602 33.7247 44.3469 35.7259 44.7433 37.093C44.8892 37.5959 44.778 38.1375 44.4519 38.5472C43.3343 39.9501 42.1192 40.5043 41.1801 39.2731Z" fill="#3F8AEF"/>
<path d="M52.5609 46.0894C52.8438 47.0513 53.5445 47.7932 54.2738 48.176C55.3713 48.752 56.1785 47.8329 56.0898 46.662C56.0099 45.608 55.3428 44.0382 54.1371 43.9464C52.9499 43.8556 52.2376 44.9895 52.5609 46.0894Z" fill="#FFB573"/>
<path d="M92.5174 125.386L95.9534 123.523L92.7554 115.135L88.3945 117.749L92.5174 125.386Z" fill="#FFB573"/>
<path d="M95.5233 121.8L91.3869 124.221C91.2223 124.318 91.1513 124.519 91.2186 124.698L92.3046 127.583C92.6799 128.58 93.8145 128.875 94.7784 128.42C96.0979 127.798 97.068 126.413 98.6802 125.456C101.021 124.067 101.357 124.193 103.124 121.926C104.315 120.398 102.542 119.996 101.8 120.389C99.9321 121.377 100.537 121.566 96.7055 121.532C96.289 121.529 95.8746 121.594 95.5233 121.8Z" fill="#263238"/>
<path d="M52.8187 86.7942C52.8187 86.7942 82.6714 82.3783 85.762 90.0307C91.1394 103.345 94.5462 119.994 94.5462 119.994L90.5975 122.649C90.5975 122.649 82.0502 109.584 77.4201 96.2081C71.8893 97.9976 54.293 103.755 47.8483 103.755C40.965 103.755 38.1535 97.8867 40.6396 88.1413C40.8613 87.2726 41.6531 86.6708 42.5497 86.6752C46.883 86.6963 52.8187 86.7942 52.8187 86.7942Z" fill="#3F8AEF"/>
<path opacity="0.6" d="M52.8187 86.7942C52.8187 86.7942 82.6714 82.3783 85.762 90.0307C91.1394 103.345 94.5462 119.994 94.5462 119.994L90.5975 122.649C90.5975 122.649 82.0502 109.584 77.4201 96.2081C71.8893 97.9976 54.293 103.755 47.8483 103.755C40.965 103.755 38.1535 97.8867 40.6396 88.1413C40.8613 87.2726 41.6531 86.6708 42.5497 86.6752C46.883 86.6963 52.8187 86.7942 52.8187 86.7942Z" fill="white"/>
<path d="M95.0409 119.986L90.2271 123.098L88.3945 120.249L94.3353 115.307L95.0409 119.986Z" fill="#3F8AEF"/>
<path d="M40.5657 85.4767L40.0452 87.1131C39.9768 87.2392 40.1247 87.3742 40.3379 87.3807L59.316 87.9451C59.4823 87.9498 59.6224 87.8727 59.636 87.7683L59.8512 86.1227C59.8662 86.0088 59.725 85.9075 59.5431 85.9024L40.87 85.3471C40.733 85.3431 40.6096 85.3954 40.5657 85.4767Z" fill="white"/>
<path d="M62.1303 66.4225L63.3073 69.4689C63.7065 70.4902 64.1142 71.5085 64.53 72.5153C65.3671 74.5206 66.2426 76.5198 67.231 78.3021L67.3227 78.4704C67.3282 78.4806 67.3431 78.5071 67.3404 78.504C67.3095 78.4554 67.2755 78.4078 67.2388 78.3629C67.1633 78.2742 67.0841 78.1912 66.996 78.1151C66.9018 78.0389 66.8192 77.9797 66.7322 77.9284C66.6349 77.8754 66.5639 77.8407 66.4904 77.8118C66.4544 77.7975 66.4105 77.7842 66.3793 77.7747C66.3517 77.7655 66.3238 77.7574 66.296 77.7506C66.2677 77.7438 66.2392 77.7383 66.2106 77.7343L66.1525 77.7244C66.0637 77.7166 66.0331 77.7156 65.9906 77.721C65.9763 77.7203 65.9481 77.7302 65.9594 77.7302C65.957 77.7394 66.0138 77.7339 66.0709 77.7315C66.3446 77.7026 66.8032 77.5673 67.249 77.3983C68.1578 77.0495 69.1435 76.6034 70.107 76.1155C72.0528 75.1557 74.0201 74.0667 75.9839 73.031L76.0108 73.0168C76.6745 72.6669 77.4962 72.9212 77.8461 73.5849C78.1348 74.1323 78.011 74.7882 77.5867 75.1972C75.906 76.8156 74.1414 78.2653 72.23 79.641C71.261 80.3125 70.2821 80.9813 69.139 81.5681C68.5587 81.8622 67.9667 82.1515 67.1429 82.3848C66.9246 82.4412 66.7046 82.4929 66.4214 82.5255C66.2929 82.5442 66.1232 82.5524 65.9682 82.5578C65.7849 82.5565 65.6129 82.5538 65.3854 82.5198L65.2226 82.4939L65.0352 82.4504L64.8496 82.3991C64.7846 82.3787 64.7092 82.3498 64.6405 82.3226C64.5014 82.2675 64.3651 82.2059 64.21 82.1121C64.0621 82.0251 63.9197 81.9285 63.7759 81.8017C63.6334 81.6806 63.5035 81.5487 63.3883 81.4011C63.3298 81.3284 63.274 81.2533 63.2217 81.1768L63.1836 81.1206L63.0544 80.9289C62.3421 79.9052 61.744 78.875 61.1745 77.8322C60.5986 76.7942 60.0882 75.7436 59.5928 74.6875C59.0951 73.6332 58.6442 72.5663 58.2073 71.4939C57.7735 70.4124 57.3706 69.3556 56.9939 68.2143C56.523 66.7876 57.2978 65.2494 58.7245 64.7785C60.1056 64.3229 61.5914 65.0346 62.1119 66.3745L62.1303 66.4225Z" fill="#FFB573"/>
<path d="M59.8281 59.8101C64.071 62.9184 64.4025 69.8738 64.4025 69.8738L56.0966 74.8749C56.0966 74.8749 53.8744 69.1775 55.081 64.9377C55.9626 61.8406 58.0499 58.5073 59.8281 59.8101Z" fill="#263238"/>
<path d="M82.7774 74.8167L81.0492 75.7657C80.618 76.0026 80.1203 76.0893 79.6344 76.0125L77.7675 75.7391C76.5768 75.5647 75.4864 74.9731 74.6912 74.0697C75.0043 72.3215 77.981 72.2609 77.981 72.2609L80.1706 71.3283C80.5283 71.176 80.9427 71.2566 81.2171 71.5316L82.9926 73.3105C83.4407 73.759 83.3329 74.5117 82.7774 74.8167Z" fill="#FFB573"/>
<path d="M68.4413 106.157C68.0105 103.083 65.1698 100.591 62.0962 100.591H56.5314L51.9374 67.8104C51.5627 65.1349 49.0895 62.9661 46.4144 62.9661H26.7944C24.1189 62.9661 22.254 65.1349 22.629 67.8104L26.861 98.0065C27.5114 102.648 31.8019 106.411 36.4432 106.411H36.8488H57.3471H68.477L68.4413 106.157Z" fill="#3F8AEF"/>
<path d="M65.506 104.664C65.0725 104.664 64.6703 104.385 64.5333 103.949L62.3056 96.8579C61.7388 95.0525 60.0868 93.84 58.1947 93.84H52.6999C52.1366 93.84 51.6799 93.3834 51.6799 92.82C51.6799 92.2567 52.1366 91.8 52.6999 91.8H58.195C60.9827 91.8 63.4167 93.5871 64.2521 96.2462L66.4798 103.338C66.6488 103.875 66.3499 104.448 65.8124 104.617C65.7107 104.648 65.6073 104.664 65.506 104.664Z" fill="#3F8AEF"/>
<path d="M47.5432 142.077H43.4067L43.4343 106.411H47.5156L47.5432 142.077Z" fill="#3F8AEF"/>
<path opacity="0.6" d="M47.5432 142.077H43.4067L43.4343 106.411H47.5156L47.5432 142.077Z" fill="white"/>
<path opacity="0.3" d="M47.5163 108.241L43.4332 109.24L43.4342 106.411H47.5156L47.5163 108.241Z" fill="#3F8AEF"/>
<path d="M45.4692 141.2C41.2984 141.2 37.9171 141.944 37.9171 142.428H53.0213C53.0213 141.944 49.6403 141.2 45.4692 141.2Z" fill="#263238"/>
</svg>
