<svg width="22" height="16" viewBox="0 0 22 16" fill="none" xmlns="http://www.w3.org/2000/svg">
<path fill-rule="evenodd" clip-rule="evenodd" d="M3.74526 0.29289C3.29507 -0.0976301 2.56517 -0.0976301 2.11498 0.29289C1.6648 0.683421 1.6648 1.31658 2.11498 1.70711L18.2539 15.7071C18.704 16.0976 19.434 16.0976 19.8841 15.7071C20.3343 15.3166 20.3343 14.6834 19.8841 14.2929L18.1859 12.8197C19.9584 11.5924 21.3042 9.92112 21.9998 7.99997C20.5308 3.94289 16.1615 1 10.9998 1C9.1282 1 7.36075 1.38692 5.79799 2.07358L3.74526 0.29289ZM8.65727 4.55392L10.4024 6.06781C10.593 6.02359 10.7932 6.00001 10.9999 6.00001C12.2731 6.00001 13.3055 6.89544 13.3055 8.00001C13.3055 8.17921 13.2783 8.35301 13.2273 8.51821L14.9724 10.0321C15.3782 9.43661 15.611 8.74191 15.611 8.00001C15.611 5.79087 13.5465 4.00001 10.9999 4.00001C10.1446 4.00001 9.34379 4.20198 8.65727 4.55392Z" fill="#606060"/>
<path d="M13.8288 14.6967L10.7112 11.9923C8.39466 11.8681 6.54108 10.2601 6.39788 8.25058L2.16366 4.57751C1.20191 5.57221 0.45922 6.73167 0 7.99998C1.46895 12.0571 5.83831 15 11 15C11.9761 15 12.9237 14.8948 13.8288 14.6967Z" fill="#606060"/>
</svg>
