<svg width="21" height="20" viewBox="0 0 21 20" fill="none" xmlns="http://www.w3.org/2000/svg">
<path d="M14.7437 0H6.2553C4.5967 0.00185632 3.00662 0.630245 1.83392 1.74729C0.661211 2.86434 0.00167026 4.37882 0 5.95843L0 14.0426C0.00194913 15.6222 0.661758 17.1366 1.83466 18.2534C3.00756 19.3703 4.59776 19.9984 6.25635 20H14.7447C16.4033 19.9981 17.9934 19.3698 19.1661 18.2527C20.3388 17.1357 20.9983 15.6212 21 14.0416V5.95743C20.998 4.37781 20.3382 2.86345 19.1653 1.74659C17.9924 0.629725 16.4022 0.00159073 14.7437 0ZM18.8879 14.0416C18.8879 14.5599 18.7807 15.0731 18.5724 15.552C18.3642 16.0308 18.0589 16.466 17.6741 16.8325C17.2893 17.199 16.8324 17.4897 16.3296 17.688C15.8268 17.8864 15.2879 17.9885 14.7437 17.9885H6.2553C5.15635 17.9882 4.10252 17.5723 3.32555 16.8321C2.54858 16.0919 2.1121 15.0882 2.1121 14.0416V5.95743C2.11237 4.91081 2.54912 3.90716 3.32629 3.16719C4.10346 2.42722 5.15741 2.01152 6.25635 2.01152H14.7447C15.8436 2.01179 16.8975 2.42774 17.6745 3.1679C18.4514 3.90806 18.8879 4.91182 18.8879 5.95843V14.0416Z" fill="white"/>
<path d="M10.4994 4.82727C9.05991 4.82939 7.68 5.37501 6.6622 6.34453C5.64441 7.31405 5.07177 8.62835 5.06982 9.99932C5.07149 11.3706 5.64415 12.6854 6.66221 13.6551C7.68026 14.6249 9.06059 15.1705 10.5005 15.1724C11.9405 15.1708 13.3211 14.6253 14.3394 13.6555C15.3577 12.6857 15.9305 11.3708 15.9322 9.99932C15.93 8.62801 15.3568 7.31351 14.3383 6.34412C13.3199 5.37473 11.9393 4.8296 10.4994 4.82827V4.82727ZM10.4994 13.1609C9.61929 13.1609 8.7752 12.8279 8.15285 12.2352C7.5305 11.6424 7.18087 10.8385 7.18087 10.0003C7.18087 9.1621 7.5305 8.35821 8.15285 7.76549C8.7752 7.17278 9.61929 6.83979 10.4994 6.83979C11.3796 6.83979 12.2236 7.17278 12.846 7.76549C13.4684 8.35821 13.818 9.1621 13.818 10.0003C13.818 10.8385 13.4684 11.6424 12.846 12.2352C12.2236 12.8279 11.3796 13.1609 10.4994 13.1609Z" fill="white"/>
<path d="M15.9418 6.10578C16.6603 6.10578 17.2429 5.55098 17.2429 4.86661C17.2429 4.18224 16.6603 3.62744 15.9418 3.62744C15.2232 3.62744 14.6406 4.18224 14.6406 4.86661C14.6406 5.55098 15.2232 6.10578 15.9418 6.10578Z" fill="white"/>
</svg>
