<svg width="20" height="17" viewBox="0 0 20 17" fill="none" xmlns="http://www.w3.org/2000/svg">
<path d="M16.2463 8.68746C18.4873 8.68746 19.9999 10.3749 19.9999 12.875C19.9999 15.1251 18.2632 17 15.9103 17C13.3332 17 11.4285 14.75 11.4285 11.3126C11.4285 3.50001 16.6946 0.375005 19.9999 0V3.43749C17.759 3.875 15.238 6.31256 15.1259 8.99995C15.238 8.93752 15.6862 8.68746 16.2463 8.68746Z" fill="#3F8AEF"/>
<path d="M4.81793 8.68746C7.05883 8.68746 8.57143 10.3749 8.57143 12.875C8.57143 15.1251 6.83473 17 4.48179 17C1.90476 17 0 14.75 0 11.3126C0 3.50001 5.2661 0.375005 8.57143 0V3.43749C6.33053 3.875 3.80953 6.31256 3.69749 8.99995C3.80953 8.93752 4.2577 8.68746 4.81793 8.68746Z" fill="#3F8AEF"/>
</svg>
