<svg width="22" height="16" viewBox="0 0 22 16" fill="none" xmlns="http://www.w3.org/2000/svg">
<path d="M10.9999 10.2857C12.2732 10.2857 13.3054 9.26235 13.3054 7.99995C13.3054 6.73758 12.2732 5.71423 10.9999 5.71423C9.72656 5.71423 8.69434 6.73758 8.69434 7.99995C8.69434 9.26235 9.72656 10.2857 10.9999 10.2857Z" fill="#606060"/>
<path fill-rule="evenodd" clip-rule="evenodd" d="M0 8C1.46893 3.36333 5.83828 0 11 0C16.1617 0 20.531 3.36329 22 7.99995C20.531 12.6367 16.1617 16 11 16C5.83828 16 1.46895 12.6367 0 8ZM15.6111 8C15.6111 10.5247 13.5466 12.5714 11 12.5714C8.4534 12.5714 6.38895 10.5247 6.38895 8C6.38895 5.47527 8.4534 3.42857 11 3.42857C13.5466 3.42857 15.6111 5.47527 15.6111 8Z" fill="#606060"/>
</svg>
